<?xml version="1.0" standalone="no"?>
<!DOCTYPE svg PUBLIC "-//W3C//DTD SVG 20010904//EN"
 "http://www.w3.org/TR/2001/REC-SVG-20010904/DTD/svg10.dtd">
<svg version="1.0" xmlns="http://www.w3.org/2000/svg"
 width="1172.000000pt" height="1280.000000pt" viewBox="0 0 1172.000000 1280.000000"
 preserveAspectRatio="xMidYMid meet">
<metadata>
Created by potrace 1.15, written by Peter Selinger 2001-2017
</metadata>
<g transform="translate(0.000000,1280.000000) scale(0.100000,-0.100000)"
fill="#879583" stroke="none">
<path d="M7817 12780 c-15 -12 -27 -30 -27 -40 0 -25 47 -60 81 -60 30 0 59
-23 59 -47 0 -9 27 -66 59 -127 59 -111 81 -181 81 -257 0 -36 -3 -41 -32 -53
-18 -8 -51 -17 -73 -21 -54 -9 -110 -37 -110 -55 0 -12 19 -15 105 -15 137 0
131 11 128 -241 -4 -232 0 -224 -127 -249 -85 -16 -121 -29 -111 -39 3 -2 50
-9 105 -16 129 -15 137 -22 101 -93 l-28 -54 17 -72 c19 -78 17 -240 -4 -294
-14 -35 -35 -43 -162 -56 -114 -12 -190 -30 -196 -48 -6 -16 93 -27 180 -19
112 11 152 -14 112 -70 -12 -18 -29 -22 -117 -28 -145 -10 -250 -24 -340 -47
-91 -23 -141 -24 -158 -4 -29 36 20 77 125 105 79 21 155 51 155 61 0 15 -47
10 -150 -17 -134 -34 -147 -26 -140 81 3 49 60 193 100 253 27 41 39 72 43
110 7 64 37 115 76 132 17 6 48 38 72 73 73 104 99 129 126 122 18 -4 31 2 57
31 31 34 39 37 105 43 72 7 110 24 78 37 -37 14 -392 -43 -604 -97 -85 -21
-159 -39 -164 -39 -19 0 -8 43 21 85 44 64 87 93 192 129 125 43 120 56 -17
44 l-40 -3 3 35 c4 67 95 115 264 139 78 11 108 25 108 50 0 38 -44 40 -174 6
-128 -33 -133 -33 -153 13 -9 20 -29 65 -44 98 -16 34 -29 68 -29 76 0 50 135
190 251 259 78 47 102 71 97 96 -10 46 -155 -5 -267 -96 -35 -28 -69 -51 -75
-51 -27 0 -93 -86 -186 -245 -67 -112 -128 -179 -186 -201 -39 -15 -46 -22
-64 -70 -38 -104 -153 -306 -437 -771 -28 -45 -110 -198 -183 -340 -73 -142
-158 -303 -189 -358 -31 -55 -62 -116 -70 -135 -8 -19 -31 -57 -51 -85 -21
-27 -41 -61 -45 -75 -10 -33 -42 -88 -138 -239 -44 -68 -93 -153 -109 -189
-16 -36 -42 -78 -57 -93 -15 -15 -62 -94 -105 -176 -42 -81 -107 -191 -144
-244 -37 -53 -94 -145 -127 -205 -33 -60 -84 -135 -113 -167 -52 -57 -54 -60
-47 -103 6 -44 6 -45 -29 -59 -56 -24 -206 -238 -206 -295 0 -9 -16 -37 -35
-61 -19 -24 -44 -68 -55 -98 -23 -59 -62 -120 -125 -196 -87 -104 -105 -135
-105 -182 0 -49 -9 -53 -44 -18 -30 29 -76 33 -98 8 -25 -30 -38 -82 -38 -160
0 -70 -1 -73 -20 -63 -12 6 -27 36 -40 79 -24 82 -45 105 -67 76 -19 -26 -10
-82 23 -154 30 -68 19 -87 -25 -43 -17 17 -31 37 -31 46 0 26 -50 56 -94 56
-49 0 -135 -31 -148 -53 -13 -23 15 -82 63 -134 25 -27 38 -50 35 -59 -3 -9
-6 -18 -6 -20 0 -2 -13 -4 -28 -4 -33 0 -67 33 -109 105 -16 28 -36 50 -44 50
-26 0 -11 -71 36 -164 25 -50 45 -93 45 -95 0 -2 -18 -2 -40 1 -43 6 -72 -9
-63 -32 9 -24 -17 -84 -39 -91 -32 -10 -54 24 -62 92 -7 64 -66 197 -117 269
-37 51 -77 79 -128 89 -19 3 -42 13 -51 21 -22 20 -96 45 -135 45 -18 0 -50
-7 -71 -16 -26 -11 -53 -14 -84 -10 -38 5 -55 1 -105 -24 -33 -16 -75 -30 -94
-30 -80 0 -266 -140 -289 -218 -7 -22 -30 -71 -51 -111 -58 -105 -58 -126 1
-139 l43 -9 -48 -21 c-58 -26 -87 -17 -87 26 0 37 -60 161 -116 239 -75 106
-25 98 -674 95 -808 -5 -1156 13 -1445 73 -66 14 -141 25 -167 25 -42 0 -53
-5 -87 -39 -105 -105 -93 -143 60 -204 113 -44 176 -55 466 -82 331 -29 356
-30 435 -9 52 13 73 13 157 2 159 -21 625 -16 865 11 119 13 203 18 208 13 16
-16 -62 -71 -187 -132 -126 -61 -364 -136 -575 -180 -184 -38 -270 -60 -299
-74 -39 -21 -103 -25 -496 -36 -481 -13 -597 -31 -668 -102 -32 -32 -31 -46
13 -116 l27 -44 174 1 c249 2 677 20 740 32 30 5 110 13 179 18 101 7 142 14
215 40 50 18 133 45 186 61 53 15 107 34 120 41 13 7 61 18 107 26 72 11 96
21 185 75 137 83 222 121 250 114 33 -8 143 -111 171 -159 13 -23 30 -61 37
-85 l12 -43 -50 -52 c-28 -29 -56 -63 -63 -76 -12 -23 -10 -27 19 -51 35 -30
42 -78 15 -101 -29 -24 -46 -67 -34 -89 6 -11 17 -20 25 -20 8 0 22 -11 31
-25 25 -38 15 -185 -16 -243 -31 -58 -40 -171 -16 -206 9 -14 16 -41 16 -60 0
-19 3 -41 6 -50 9 -23 54 -20 81 6 33 31 39 16 7 -21 -21 -25 -25 -38 -20 -64
3 -17 13 -81 20 -142 16 -122 28 -161 81 -266 45 -91 75 -133 169 -243 42 -49
80 -94 84 -100 4 -6 26 -24 49 -39 27 -17 45 -37 49 -55 12 -49 33 -81 124
-187 100 -116 159 -162 222 -173 49 -9 123 -1 139 15 6 6 19 44 29 85 10 41
38 122 63 179 109 257 138 407 162 826 15 282 30 364 67 387 26 16 36 -4 11
-21 -20 -14 -23 -24 -23 -88 0 -96 23 -225 54 -302 32 -78 41 -118 61 -278 42
-339 119 -672 210 -910 19 -52 26 -88 26 -139 0 -79 6 -94 64 -156 36 -39 45
-59 65 -138 17 -71 31 -103 56 -134 31 -36 34 -46 34 -106 1 -83 15 -149 40
-184 11 -15 20 -36 20 -47 0 -11 12 -28 26 -37 22 -15 25 -22 19 -48 -16 -78
-16 -98 -1 -167 8 -41 18 -96 21 -124 17 -132 158 -321 224 -300 30 9 177 168
185 199 9 36 -14 62 -65 76 -21 6 -41 15 -45 21 -3 6 24 41 60 79 36 37 66 72
66 78 0 5 -7 74 -16 153 -18 158 -14 263 12 325 22 51 26 290 6 346 -12 33
-10 49 11 140 14 57 28 121 32 143 8 47 25 82 61 124 28 34 54 39 74 16 7 -8
21 -15 31 -15 23 0 23 1 4 -43 -8 -20 -15 -45 -15 -56 0 -17 5 -20 29 -15 36
7 51 -15 51 -74 0 -46 21 -72 44 -52 8 6 12 18 9 26 -3 8 2 26 12 40 24 37 56
29 75 -21 22 -59 29 -68 45 -55 7 6 15 23 18 38 7 32 90 150 112 159 32 11 45
-16 45 -93 0 -67 3 -76 25 -96 30 -26 30 -33 6 -104 -17 -47 -18 -56 -5 -61
18 -7 76 33 133 92 57 59 85 59 89 -2 2 -27 -5 -60 -19 -92 -18 -42 -29 -55
-64 -70 -62 -28 -105 -100 -105 -178 0 -54 15 -74 46 -63 72 28 86 -10 30 -83
-19 -24 -39 -53 -45 -65 -13 -24 0 -190 22 -272 10 -39 12 -73 6 -115 -15
-118 -12 -149 20 -189 35 -44 47 -105 61 -326 13 -203 16 -220 50 -274 30 -46
53 -117 65 -194 8 -49 27 -72 60 -72 30 0 39 -17 55 -103 9 -52 21 -78 46
-108 25 -30 34 -50 34 -78 0 -57 -28 -139 -53 -156 -12 -8 -60 -17 -107 -21
-112 -9 -130 -16 -130 -52 0 -60 81 -91 188 -72 83 14 128 37 179 93 57 61 65
100 61 281 l-3 151 -37 60 c-21 33 -38 71 -38 83 0 13 -16 64 -36 115 -27 70
-34 100 -29 127 16 90 16 127 1 246 -25 213 -30 308 -16 333 11 21 17 22 64
17 71 -9 85 7 97 115 6 50 20 106 35 140 28 61 26 93 -3 87 -16 -3 -50 -61
-98 -168 -24 -53 -42 -61 -51 -24 -9 35 21 287 39 322 26 56 85 32 130 -53 42
-78 21 -307 -54 -577 -21 -79 -39 -160 -39 -180 0 -21 14 -80 31 -130 26 -79
32 -116 39 -238 8 -153 28 -232 63 -254 32 -20 38 10 34 159 -4 148 -47 453
-73 513 -17 39 -12 52 21 52 12 0 26 8 30 17 3 10 8 97 11 193 6 222 15 275
68 418 65 175 130 406 171 602 20 95 43 187 52 204 18 35 67 81 107 103 27 14
31 14 42 -2 7 -10 15 -36 18 -59 20 -162 31 -218 53 -276 14 -38 27 -96 30
-140 5 -67 1 -91 -30 -200 -48 -166 -105 -419 -127 -562 -8 -58 -8 -81 0 -95
10 -15 7 -30 -13 -78 -14 -33 -28 -88 -32 -122 -4 -34 -13 -78 -20 -99 -8 -24
-11 -66 -7 -120 3 -59 0 -103 -13 -157 -14 -61 -15 -83 -6 -126 6 -29 11 -107
11 -174 0 -141 5 -167 31 -167 26 0 24 -17 -11 -105 -16 -41 -33 -92 -36 -114
-12 -77 40 -57 78 30 19 46 40 65 58 54 5 -3 1 -30 -7 -60 -21 -75 -10 -111
45 -148 28 -19 42 -36 42 -50 0 -32 68 -228 104 -299 39 -77 64 -95 149 -107
87 -12 126 -35 155 -91 23 -46 29 -104 12 -115 -19 -12 -69 51 -76 94 -8 51
-19 52 -35 4 -17 -53 -14 -130 9 -192 18 -50 19 -57 5 -90 -19 -45 -11 -135
16 -189 23 -46 57 -180 73 -288 10 -73 10 -90 -5 -138 -26 -81 -43 -98 -108
-104 -82 -7 -111 -46 -74 -99 17 -24 128 -71 189 -79 36 -5 47 -2 74 21 73 61
97 160 89 362 -3 95 -11 161 -26 213 -15 53 -21 105 -21 179 0 70 -6 122 -17
158 -15 46 -15 59 -4 86 23 55 23 92 2 161 -29 94 -27 112 14 153 35 35 37 35
94 29 32 -4 65 -4 75 0 28 11 55 79 72 181 51 317 66 403 79 447 11 36 15 106
16 250 1 111 4 212 8 224 6 23 7 23 22 5 25 -29 65 -104 86 -163 23 -60 29
-98 43 -271 12 -145 38 -229 91 -299 58 -79 65 -93 113 -263 24 -84 57 -184
73 -222 40 -92 40 -94 58 -296 8 -96 22 -199 30 -229 8 -30 21 -77 29 -105 7
-27 17 -74 21 -103 l7 -53 -45 -42 c-75 -69 -83 -124 -25 -172 60 -50 121 -23
133 60 10 66 0 337 -16 422 -12 69 -12 75 10 125 46 106 46 103 32 175 -17 83
-32 114 -111 223 -71 98 -74 122 -16 131 21 3 42 12 47 20 15 24 10 93 -11
134 -11 22 -20 47 -20 57 0 9 -14 34 -32 54 -31 35 -31 37 -13 50 10 8 32 14
49 14 24 0 48 -19 140 -114 61 -62 131 -144 155 -182 24 -38 62 -98 85 -134
73 -114 143 -130 130 -29 -6 46 -5 49 20 59 34 13 87 13 120 0 30 -11 34 -43
11 -74 -21 -27 -19 -60 4 -80 23 -21 41 -14 86 34 17 18 60 47 97 66 44 22 71
43 80 61 16 33 50 41 83 19 42 -28 85 -15 85 26 0 14 8 18 34 18 41 0 45 8 34
77 -10 66 -5 77 80 167 36 39 75 92 88 122 19 43 29 54 46 54 34 0 49 -14 57
-50 3 -19 13 -36 20 -38 11 -4 12 12 6 83 l-7 88 36 -28 c61 -46 85 -17 44 54
-20 36 -20 71 1 71 5 0 23 -12 40 -26 36 -30 37 -23 16 56 -22 81 -20 100 9
100 14 0 28 -6 33 -13 5 -7 10 10 13 43 5 51 7 55 34 60 30 5 30 6 33 80 4 79
4 96 -1 257 -3 126 -14 143 -89 143 -35 0 -72 -10 -127 -35 -60 -27 -123 -44
-269 -70 -226 -42 -279 -48 -431 -48 -86 -1 -130 4 -174 18 -50 16 -65 17
-102 7 -55 -15 -129 -15 -155 -2 -36 20 -21 152 25 219 24 34 27 50 34 178 6
108 12 147 26 167 17 27 18 27 119 25 85 -3 107 0 129 15 44 29 58 16 58 -55
0 -70 16 -76 37 -13 24 71 78 100 136 73 21 -9 28 -8 46 10 12 12 30 21 42 21
11 0 34 15 50 33 25 27 31 29 39 17 21 -33 11 -71 -30 -111 -31 -31 -40 -47
-39 -72 l1 -32 10 28 c20 54 71 22 106 -68 26 -68 35 -122 22 -130 -15 -9 -52
26 -76 71 -25 47 -32 43 -24 -13 10 -67 6 -74 -43 -66 l-40 6 7 -29 c34 -135
79 -166 235 -166 84 -1 106 3 179 31 45 18 119 39 165 46 45 8 92 17 104 21
17 5 25 0 37 -24 13 -25 24 -32 58 -37 48 -7 98 7 98 28 0 7 -11 28 -25 47
-41 55 -27 79 24 44 19 -14 25 -14 32 -3 5 8 6 23 2 34 -8 26 -49 91 -63 100
-5 3 -10 10 -10 15 0 5 19 -3 43 -19 95 -63 105 -46 40 62 -58 96 -66 114 -52
123 12 7 49 -24 49 -42 0 -7 11 -26 24 -41 22 -25 25 -26 31 -10 4 9 2 61 -4
115 -12 100 -17 110 -88 200 l-26 33 31 11 c18 7 32 18 32 26 0 7 -17 36 -39
65 -58 79 -72 137 -32 137 26 0 47 29 65 89 22 75 20 127 -6 168 -20 34 -20
36 -4 64 17 28 16 30 -10 77 -29 52 -27 82 4 82 53 0 44 49 -18 103 l-42 36
62 -2 c39 -1 64 2 67 9 2 6 -12 30 -32 54 -38 45 -42 60 -23 90 16 25 -5 66
-45 86 -45 24 -67 51 -67 85 0 25 -12 44 -60 91 -39 39 -60 68 -60 83 0 13 16
44 35 69 19 26 35 51 35 58 0 6 -12 27 -26 45 l-26 35 32 33 32 33 -41 42
c-22 23 -43 51 -46 63 -4 12 -11 32 -17 45 -9 18 -8 30 6 59 17 35 17 37 -1
52 -11 9 -24 28 -31 43 -6 15 -31 41 -54 57 -90 63 -86 58 -58 81 14 11 39 24
55 28 43 12 47 55 8 76 -15 8 -41 28 -58 46 -16 17 -44 37 -61 45 -18 7 -36
25 -43 43 -8 19 -24 35 -42 41 -25 9 -29 15 -29 50 0 52 -26 71 -96 71 -46 0
-55 4 -91 39 -34 34 -48 40 -99 46 -106 11 -102 10 -69 24 31 13 65 39 65 51
0 14 -52 30 -98 30 -89 0 -167 35 -142 65 6 7 30 18 55 24 80 20 68 52 -30 77
-31 8 -74 26 -94 38 -37 24 -67 54 -60 60 2 2 53 33 112 69 253 151 315 234
277 367 -20 69 -7 78 183 120 71 16 148 40 171 53 22 14 59 30 81 37 59 19
109 46 176 95 33 24 95 63 137 86 88 49 462 328 602 449 334 290 753 708 843
842 148 221 297 587 297 729 0 89 -55 160 -164 216 -104 53 -192 71 -408 84
-227 14 -440 6 -582 -21 -56 -11 -198 -36 -316 -56 -133 -22 -237 -45 -272
-60 -32 -13 -89 -28 -127 -34 -38 -5 -94 -19 -123 -31 -29 -12 -88 -32 -131
-45 -42 -12 -132 -44 -200 -70 -67 -25 -174 -64 -237 -86 -63 -23 -178 -69
-255 -103 -77 -35 -193 -81 -258 -104 -65 -23 -225 -93 -355 -155 -130 -62
-270 -128 -309 -145 -40 -17 -164 -77 -275 -131 -111 -55 -207 -100 -214 -100
-37 0 -19 48 74 199 29 46 52 90 52 98 0 7 29 71 65 141 71 141 89 210 62 240
-14 15 -71 46 -197 106 -53 25 -38 66 71 201 48 60 90 127 125 200 84 174 176
481 224 746 46 255 79 418 95 469 18 58 36 190 80 580 70 619 71 653 20 956
-56 333 -93 426 -198 498 -69 47 -113 55 -150 26z m-476 -610 c21 -12 26 -59
9 -91 -14 -26 -27 -24 -67 11 -18 17 -43 30 -53 30 -30 0 -24 14 18 38 41 24
64 27 93 12z m-203 -142 c-4 -30 -48 -39 -48 -10 0 24 8 32 32 32 14 0 19 -6
16 -22z m127 -78 c26 -21 16 -34 -67 -85 -87 -53 -106 -75 -65 -75 41 0 57
-11 57 -38 0 -40 -93 -124 -166 -151 -61 -23 -94 -46 -94 -65 0 -6 13 -19 30
-28 42 -24 50 -64 17 -92 -14 -11 -51 -64 -82 -116 -31 -52 -77 -120 -101
-151 -24 -31 -59 -90 -77 -130 -42 -92 -104 -170 -151 -193 -41 -19 -45 -39
-20 -88 15 -30 15 -34 -1 -63 -19 -36 -87 -91 -154 -125 -33 -16 -41 -24 -30
-31 8 -5 22 -9 32 -9 24 0 22 -10 -21 -76 -48 -72 -66 -89 -115 -102 -30 -9
-40 -7 -53 5 -23 23 -10 70 30 113 22 24 36 52 45 89 16 74 72 203 198 455
116 232 152 298 256 461 95 149 128 188 189 223 55 31 156 117 126 108 -49
-15 -88 -18 -88 -6 0 17 48 111 68 134 34 38 93 57 160 53 34 -3 69 -10 77
-17z m425 -246 c0 -18 -44 -63 -72 -74 -18 -7 -42 -21 -53 -31 -44 -38 -138
-86 -363 -184 -53 -24 -60 -30 -50 -43 11 -12 5 -21 -33 -56 -119 -107 -224
-104 -139 5 17 21 56 82 86 136 31 54 67 110 80 124 26 27 31 29 334 98 118
27 210 38 210 25z m-320 -344 c26 -26 25 -36 -6 -65 -24 -22 -25 -28 -15 -53
24 -58 -38 -130 -137 -157 -107 -30 -116 -40 -86 -96 14 -28 14 -32 -5 -62
-41 -67 -173 -160 -242 -171 -22 -4 -80 -27 -129 -51 -100 -50 -120 -54 -120
-25 0 51 70 149 159 223 26 21 31 31 23 39 -17 17 -15 46 9 95 27 56 68 80
267 155 158 59 195 78 155 78 -36 0 -34 15 5 52 65 62 90 70 122 38z m-96
-439 c17 -18 16 -21 -11 -51 -20 -22 -42 -35 -68 -39 -53 -8 -49 -25 7 -31 58
-7 62 -11 53 -48 -4 -20 -14 -32 -29 -36 -13 -3 -49 -22 -82 -41 -70 -42 -98
-42 -102 -1 -6 45 6 74 43 108 19 17 35 37 35 44 0 29 93 114 126 114 6 0 19
-9 28 -19z m656 -184 c40 -20 40 -96 -1 -117 -11 -6 -100 -18 -197 -25 -173
-14 -219 -21 -334 -48 -73 -18 -85 -11 -70 40 18 60 47 98 86 117 72 34 465
59 516 33z m-980 -66 c0 -40 -119 -116 -238 -152 -48 -14 -40 -28 18 -30 19 0
46 -4 59 -8 23 -6 22 -8 -29 -64 -62 -68 -94 -86 -215 -121 -112 -33 -145 -34
-145 -5 0 30 55 77 163 140 l92 54 -70 5 -70 5 52 38 c55 40 169 96 273 132
83 30 110 31 110 6z m280 -61 c23 -23 24 -29 10 -65 -6 -17 -26 -33 -56 -46
-45 -20 -272 -89 -293 -89 -20 0 -11 32 19 70 87 110 267 183 320 130z m690
-80 c13 -9 12 -12 -5 -25 -11 -9 -38 -20 -60 -26 -100 -28 -136 -42 -132 -52
2 -7 26 -12 59 -12 63 0 100 -16 119 -51 10 -20 10 -30 -4 -59 -26 -56 -80
-75 -343 -121 -174 -31 -262 -40 -275 -27 -13 13 5 57 43 105 l31 39 -37 38
c-45 46 -46 73 -3 116 26 26 49 36 107 49 133 30 468 47 500 26z m-708 -107
c28 -25 22 -57 -17 -91 -36 -32 -72 -45 -245 -87 -58 -14 -117 -34 -132 -45
-32 -24 -61 -26 -78 -5 -16 20 -5 50 38 97 48 53 70 63 192 83 58 9 130 28
160 41 67 28 60 27 82 7z m-572 -182 c0 -24 -27 -88 -52 -123 -13 -19 -37 -33
-76 -44 -66 -19 -132 -51 -132 -63 0 -5 21 -13 48 -17 37 -7 48 -14 50 -31 7
-45 -127 -153 -190 -153 -24 0 -28 4 -28 27 0 15 19 58 42 97 35 57 43 79 41
114 -1 29 3 45 13 49 8 3 14 15 14 27 0 29 9 40 50 61 32 17 195 74 213 75 4
0 7 -8 7 -19z m-432 -18 c-4 -20 -83 -83 -104 -83 -26 0 -15 27 26 64 43 38
84 49 78 19z m956 11 c10 -4 16 -18 16 -41 0 -51 -41 -87 -131 -113 -41 -12
-126 -39 -189 -60 -125 -42 -236 -70 -245 -62 -3 3 -5 18 -5 32 0 20 13 40 46
70 54 49 119 81 229 110 43 12 100 30 125 40 25 10 52 21 60 23 22 8 76 8 94
1z m660 -80 c24 -9 20 -61 -10 -112 -16 -27 -29 -70 -35 -111 -10 -79 -81
-332 -115 -410 -40 -90 -106 -200 -124 -206 -9 -3 -32 -37 -51 -77 -47 -98
-84 -147 -124 -164 -44 -18 -39 -19 -77 14 -39 34 -68 43 -92 30 -16 -9 -15
-13 10 -39 27 -28 27 -29 9 -49 -32 -36 -101 -56 -541 -159 -72 -17 -138 -31
-147 -31 -18 0 -30 -27 -17 -35 6 -4 30 -3 55 1 38 5 45 4 45 -10 0 -22 -127
-114 -167 -122 -40 -8 -79 -45 -86 -83 -5 -24 -19 -36 -77 -66 -38 -21 -90
-55 -113 -76 -24 -21 -56 -41 -71 -45 -16 -4 -74 -37 -130 -74 -55 -36 -122
-79 -147 -93 -26 -15 -63 -43 -82 -61 -50 -47 -175 -127 -217 -139 -19 -6 -52
-23 -72 -39 -20 -15 -41 -28 -47 -28 -14 0 -51 50 -51 68 0 25 41 62 70 62 28
0 70 25 70 42 0 6 -13 8 -35 4 -19 -3 -50 -9 -69 -12 -52 -9 -52 11 -2 67 25
28 46 59 46 69 0 27 41 61 129 108 44 24 83 47 86 52 3 5 -20 8 -51 7 -33 -1
-58 2 -61 9 -5 15 75 92 122 117 22 11 81 35 130 51 93 32 112 49 60 54 -54 5
-75 12 -75 27 0 34 170 127 264 144 32 6 114 29 182 51 133 43 184 50 184 24
0 -63 -129 -137 -330 -189 -98 -25 -173 -56 -163 -66 6 -6 50 0 114 16 119 29
149 31 149 11 0 -26 -72 -75 -199 -137 -89 -44 -130 -59 -148 -55 -29 8 -93
-20 -93 -40 0 -10 15 -14 56 -14 40 0 55 -3 52 -12 -3 -7 -53 -41 -112 -76
-118 -70 -206 -146 -189 -163 16 -16 55 -1 139 52 43 27 94 51 113 55 90 15
118 34 104 70 -3 8 4 26 18 41 26 28 165 123 181 123 5 0 22 15 38 34 69 78
235 186 287 186 l33 0 0 74 0 74 41 36 c23 19 61 43 85 53 24 10 44 21 44 25
0 4 -11 15 -25 24 -14 9 -25 22 -25 29 0 22 72 74 110 81 69 11 133 37 162 65
33 31 53 38 277 100 89 24 162 50 173 61 22 22 23 47 2 55 -27 10 -249 -17
-302 -37 -28 -11 -99 -24 -159 -29 -59 -6 -150 -18 -201 -28 -88 -16 -95 -16
-142 1 -34 12 -70 17 -117 14 l-67 -3 -9 33 c-8 26 -15 32 -38 32 -29 0 -139
-48 -139 -61 0 -4 18 -10 39 -14 22 -3 47 -12 56 -19 15 -11 15 -13 -2 -34
-28 -33 -110 -69 -219 -96 -54 -13 -119 -32 -144 -41 -25 -9 -57 -19 -72 -22
-24 -5 -28 -2 -28 19 0 42 41 92 80 99 68 11 96 39 68 67 -9 9 -1 22 33 55 34
34 60 50 113 66 37 11 77 21 87 21 22 0 110 38 159 69 l35 22 -40 -7 c-22 -3
-75 -14 -117 -24 -43 -10 -78 -15 -78 -13 0 3 22 28 50 56 27 28 52 58 55 67
7 21 57 50 88 50 32 0 43 -16 21 -28 -11 -6 5 -9 49 -8 78 1 100 -13 72 -43
-12 -15 -16 -29 -11 -51 5 -26 0 -37 -35 -75 -54 -58 -48 -75 25 -75 45 0 69
8 145 48 83 43 93 52 116 98 35 71 65 95 126 105 64 10 82 24 67 49 -25 39 37
104 114 122 66 14 190 80 229 120 44 45 62 48 57 11 -4 -33 -11 -33 172 -15
159 16 180 22 180 57 0 20 -5 25 -24 25 -12 0 -45 12 -72 26 -44 24 -56 26
-124 21 -41 -4 -86 -9 -99 -13 -33 -10 -23 17 13 34 38 19 189 48 321 62 61 6
119 13 130 14 39 6 54 6 69 0z m-1526 -56 c-3 -7 -21 -17 -41 -21 -30 -7 -38
-15 -46 -43 -5 -19 -23 -50 -40 -69 -17 -19 -33 -51 -36 -72 -3 -21 -8 -52
-10 -68 -3 -17 -23 -52 -45 -79 -27 -32 -39 -55 -34 -65 21 -50 18 -55 -93
-151 -101 -86 -187 -150 -204 -150 -19 0 -39 35 -39 68 1 41 26 104 82 202 20
36 47 92 59 125 12 33 41 92 64 130 22 39 47 84 54 102 7 17 23 41 37 54 22
21 26 21 64 9 36 -12 46 -11 112 12 82 29 122 34 116 16z m737 -119 c15 -24
-71 -90 -146 -113 -24 -7 -66 -27 -93 -44 -28 -18 -62 -32 -76 -32 -14 0 -35
-6 -45 -14 -18 -13 -18 -14 3 -25 11 -6 32 -11 46 -11 14 0 26 -4 26 -8 0 -12
-123 -81 -150 -84 -37 -4 -39 34 -4 61 25 20 26 23 12 38 -9 9 -39 18 -67 21
-28 2 -54 9 -57 13 -7 12 51 64 100 88 66 33 226 93 286 106 70 16 157 18 165
4z m4208 -609 c58 -9 163 -38 260 -73 15 -5 46 -28 68 -51 l42 -41 -6 -80 c-9
-110 -30 -189 -93 -334 -90 -208 -132 -271 -336 -489 -58 -63 -123 -143 -144
-179 -23 -39 -48 -69 -63 -74 -14 -6 -59 -42 -100 -82 -79 -75 -177 -154 -222
-178 -14 -8 -46 -39 -71 -69 -30 -37 -66 -67 -112 -92 -37 -20 -93 -59 -124
-86 -31 -27 -75 -58 -97 -70 -22 -11 -55 -38 -73 -61 -18 -23 -39 -41 -46 -41
-15 0 -259 -161 -296 -195 -14 -13 -44 -26 -67 -30 -25 -4 -62 -22 -94 -46
-29 -21 -58 -39 -64 -39 -6 0 -31 -13 -56 -29 -24 -16 -93 -43 -152 -60 -60
-17 -124 -38 -144 -46 -45 -19 -81 -19 -126 0 -50 21 -102 31 -372 75 -132 22
-262 44 -290 50 -27 6 -169 17 -315 25 -319 17 -341 22 -306 78 8 12 17 47 21
79 9 72 34 112 87 139 60 30 144 34 338 15 91 -8 266 -20 390 -26 492 -22 599
-31 662 -55 53 -20 207 -39 251 -31 78 15 30 60 -85 82 -40 7 -116 22 -168 33
-52 12 -121 21 -152 21 -73 0 -112 14 -100 35 12 22 150 136 244 202 58 40
100 82 160 157 123 153 175 203 230 222 35 11 60 29 94 69 25 30 55 57 67 60
12 4 49 20 82 36 33 16 111 40 173 53 115 24 148 40 137 68 -9 23 -39 26 -210
20 l-153 -5 -74 36 c-75 36 -158 66 -313 112 -139 42 -275 116 -275 151 0 9
28 27 67 45 168 75 120 109 -64 45 -54 -19 -152 -55 -218 -80 -65 -25 -123
-46 -128 -46 -5 0 -37 -13 -71 -29 -33 -16 -74 -32 -90 -35 -16 -4 -64 -27
-107 -51 -180 -103 -372 -135 -353 -60 5 21 3 25 -17 25 -13 0 -37 -9 -54 -20
-33 -22 -70 -26 -81 -9 -3 6 -16 8 -28 5 -26 -6 -41 3 -50 31 -9 27 -5 29 118
70 55 19 114 43 132 53 17 11 43 20 58 20 34 0 156 56 224 103 56 38 98 48
192 45 59 -3 112 16 300 105 53 25 124 50 159 57 34 6 129 32 209 56 81 25
170 52 197 61 65 19 69 24 66 77 -1 33 2 45 15 50 28 11 55 -3 52 -27 -4 -29
30 -33 108 -13 33 8 95 22 139 31 44 9 213 61 377 116 275 92 303 99 375 99
86 0 145 -21 151 -53 12 -64 -32 -100 -194 -163 -198 -76 -223 -83 -369 -110
-77 -14 -167 -34 -200 -44 -33 -10 -100 -26 -150 -35 -125 -23 -394 -92 -419
-108 -12 -8 -37 -17 -57 -21 -34 -6 -89 -50 -77 -61 10 -10 373 56 527 96 85
22 240 55 345 75 284 52 353 72 532 153 51 23 96 41 101 41 20 0 64 43 83 81
11 21 27 66 35 100 7 34 20 66 27 70 17 11 48 11 131 -1z m-203 -40 c0 -23
-25 -27 -33 -6 -7 16 1 26 20 26 7 0 13 -9 13 -20z m-4200 -9 c0 -14 -139 -80
-182 -88 -30 -4 -39 -2 -44 11 -11 28 10 39 118 62 57 12 104 22 106 23 1 0 2
-3 2 -8z m-1176 -43 c8 -23 5 -32 -27 -67 -29 -32 -37 -50 -37 -78 0 -30 -8
-44 -43 -77 -44 -43 -105 -78 -119 -70 -18 12 -4 48 60 153 104 172 143 204
166 139z m741 -42 c54 -23 65 -49 58 -138 -4 -54 -11 -82 -22 -92 -9 -9 -62
-22 -116 -30 -55 -9 -126 -25 -158 -36 -32 -11 -84 -23 -117 -27 -52 -5 -60
-4 -60 11 0 35 110 80 275 111 104 19 158 40 153 57 -7 21 -46 21 -128 -1
-114 -31 -139 -12 -77 59 17 20 44 51 59 68 30 36 74 42 133 18z m3530 -66 c0
-10 -12 -16 -37 -18 -40 -3 -50 10 -20 27 24 15 57 9 57 -9z m-3857 -32 c5
-28 -63 -102 -137 -148 -50 -31 -78 -55 -89 -79 -21 -44 -103 -109 -150 -117
-20 -4 -53 -15 -72 -25 -50 -24 -110 -35 -110 -19 0 25 80 90 125 101 50 13
59 34 20 49 -41 15 -34 60 16 105 41 37 134 84 167 86 9 0 60 15 112 34 101
36 113 37 118 13z m1495 -129 c54 -14 62 -25 71 -89 9 -64 -17 -116 -58 -113
-28 2 -28 2 -22 -42 9 -56 -7 -108 -49 -167 -48 -66 -97 -99 -189 -129 -105
-35 -114 -54 -19 -45 78 8 103 2 103 -23 0 -25 -67 -99 -93 -103 -19 -3 -22
-8 -19 -45 2 -39 0 -43 -25 -48 -149 -28 -191 -44 -365 -139 -48 -26 -109 -55
-135 -64 -26 -10 -69 -30 -94 -45 -48 -28 -230 -107 -248 -107 -5 0 -71 -27
-146 -60 -75 -34 -164 -68 -198 -76 -34 -9 -83 -28 -110 -42 -54 -29 -71 -23
-65 24 3 26 8 30 45 35 25 3 54 15 69 30 34 31 84 108 84 129 0 25 31 48 91
71 122 47 402 121 524 139 236 36 335 63 312 86 -27 27 -292 3 -563 -51 -110
-22 -161 -40 -312 -106 -40 -18 -57 -21 -70 -13 -32 21 -22 104 13 104 18 0
75 49 75 65 0 7 8 23 19 36 16 20 21 21 35 10 23 -19 20 -25 -15 -38 -36 -14
-30 -33 10 -33 34 0 65 31 57 58 -8 25 7 36 79 57 33 9 116 37 185 61 185 67
326 111 406 128 39 8 98 28 130 44 33 16 104 42 159 57 113 32 165 52 165 63
0 15 -24 32 -45 32 -11 0 -86 -22 -165 -49 -80 -26 -199 -60 -265 -75 -66 -15
-149 -34 -185 -42 -149 -34 -469 -144 -538 -185 -18 -10 -45 -19 -59 -19 -15
0 -37 -10 -50 -22 -17 -15 -26 -19 -34 -11 -27 27 73 135 136 147 19 4 58 18
87 31 29 13 125 45 213 70 401 116 471 143 477 187 4 29 78 66 263 133 74 26
135 53 135 60 0 6 -7 20 -15 31 -22 29 -18 53 15 86 28 28 34 29 88 25 31 -3
79 -11 105 -18z m-338 -80 c20 -32 -170 -139 -247 -139 -92 0 -200 -44 -255
-103 -26 -28 -48 -39 -115 -56 -46 -12 -106 -30 -133 -41 -28 -11 -64 -20 -80
-20 l-30 1 35 30 c64 54 320 176 455 216 28 8 97 35 155 60 139 61 201 76 215
52z m-1776 -23 c18 -21 -45 -94 -104 -121 -59 -27 -87 23 -42 77 42 51 121 75
146 44z m-93 -181 c9 -22 -39 -80 -89 -109 -59 -34 -81 -36 -85 -9 -4 29 74
108 120 122 46 13 48 13 54 -4z m257 -31 c16 -17 -67 -116 -120 -143 -15 -7
-23 -21 -23 -37 0 -68 -98 -169 -158 -162 -45 5 -37 31 33 107 40 44 65 80 65
94 0 34 26 65 93 108 56 36 95 48 110 33z m3617 -174 c41 -17 80 -30 86 -30 5
0 31 -13 56 -29 26 -17 104 -51 173 -77 70 -26 134 -54 142 -62 38 -38 -31
-184 -91 -197 -56 -11 -339 -25 -380 -18 -28 4 -50 17 -72 40 -21 22 -37 31
-48 27 -22 -8 -20 -22 9 -60 14 -18 25 -37 25 -43 0 -14 -109 -46 -430 -126
-403 -99 -586 -150 -612 -169 -25 -17 -32 -18 -69 -7 -46 14 -124 80 -133 113
-4 17 5 33 42 68 104 100 384 295 519 362 103 51 154 55 201 16 18 -15 56 -34
85 -43 86 -25 252 -64 256 -59 10 10 -28 36 -96 64 -42 18 -93 43 -114 57 -73
48 -64 77 43 135 119 63 133 67 238 67 82 0 105 -4 170 -29z m-4000 -18 c0
-33 -69 -82 -138 -97 -25 -5 -33 -3 -39 10 -8 21 21 46 92 81 60 29 85 31 85
6z m2855 -147 c141 -48 136 -46 133 -69 -8 -55 -529 -416 -600 -416 -7 0 -29
-8 -48 -19 -27 -14 -68 -20 -186 -25 -143 -7 -152 -6 -177 14 l-27 21 19 37
c33 64 136 152 178 152 13 0 37 13 55 30 l33 29 -35 1 c-20 0 -46 -7 -59 -16
-22 -15 -24 -15 -44 4 l-20 21 31 29 c17 16 46 35 64 42 18 8 46 24 61 37 21
16 41 23 73 23 35 0 66 11 141 51 178 96 256 107 408 54z m-2986 -29 c15 -18
5 -43 -36 -89 -18 -20 -33 -45 -33 -55 0 -9 -9 -32 -20 -50 -24 -39 -24 -42
-5 -42 10 0 15 -11 15 -35 0 -26 -6 -39 -25 -51 -35 -23 -47 -10 -40 40 9 59
-11 76 -60 50 -19 -10 -37 -15 -41 -11 -15 15 31 101 85 159 82 90 133 116
160 84z m211 -60 c0 -16 -26 -46 -41 -46 -17 0 -9 29 13 44 27 19 28 19 28 2z
m710 -47 c0 -33 -37 -85 -68 -97 -74 -28 -159 -21 -146 13 11 28 155 103 202
105 6 0 12 -10 12 -21z m-732 -106 c2 -13 -4 -25 -15 -31 -28 -16 -129 -25
-148 -15 -15 9 -14 13 13 31 43 31 72 41 112 39 28 -2 36 -7 38 -24z m1982
-10 c-1 -26 -140 -92 -140 -66 0 11 36 46 65 61 23 13 75 16 75 5z m-1343 -73
c19 0 35 -38 25 -57 -5 -9 -34 -26 -63 -38 -43 -17 -61 -31 -87 -71 -17 -27
-36 -50 -41 -52 -15 -5 -25 20 -31 73 l-5 50 -40 -2 c-44 -3 -65 -22 -66 -62
0 -24 -1 -24 -9 -6 -13 30 -11 87 3 115 9 17 24 27 52 32 63 12 208 26 230 22
11 -2 25 -4 32 -4z m3562 -24 c18 -18 22 -30 17 -50 -20 -79 -400 -401 -550
-466 -79 -35 -242 -44 -534 -30 -156 7 -277 17 -292 24 -23 10 -25 17 -28 95
-3 96 9 124 64 147 44 18 235 64 268 64 13 0 46 9 73 21 26 11 89 25 138 31
134 15 326 69 434 122 72 35 107 46 145 47 28 0 74 7 101 14 69 19 134 11 164
-19z m-4619 -25 c0 -25 -47 -73 -68 -69 -26 5 -27 37 -1 64 27 29 69 33 69 5z
m2208 -42 c-7 -66 -19 -78 -54 -50 -31 24 -47 26 -107 9 -24 -6 -52 -8 -62 -4
-32 12 18 52 88 70 143 36 141 37 135 -25z m-1829 4 c15 -52 14 -180 -1 -189
-6 -4 -19 3 -30 16 -14 17 -18 39 -18 97 0 107 29 151 49 76z m-249 -39 c13
-34 2 -76 -18 -72 -23 4 -38 63 -22 83 18 22 29 19 40 -11z m1809 -20 c-13
-16 -39 -19 -39 -4 0 12 32 30 43 23 4 -3 3 -11 -4 -19z m-826 -11 c-7 -2 -21
-2 -30 0 -10 3 -4 5 12 5 17 0 24 -2 18 -5z m-1223 -30 c0 -20 -57 -76 -70
-68 -17 11 -12 48 5 41 9 -3 18 1 20 9 3 8 7 22 10 30 5 18 35 9 35 -12z
m2273 -43 c33 -37 34 -48 4 -59 -13 -5 -36 -20 -53 -33 -16 -14 -44 -28 -62
-31 -43 -9 -188 -76 -274 -128 -37 -22 -86 -47 -110 -54 -24 -7 -60 -24 -80
-37 -19 -13 -62 -30 -94 -37 -32 -7 -71 -20 -86 -27 -16 -9 -57 -14 -105 -14
l-78 1 48 25 c49 26 50 27 47 86 -1 29 4 40 22 51 114 68 149 85 185 90 24 3
105 34 180 70 141 66 220 97 251 97 9 0 39 11 66 24 59 29 97 22 139 -24z
m751 11 c9 -10 37 -24 62 -31 25 -7 62 -25 83 -40 32 -24 39 -36 49 -86 24
-119 13 -160 -57 -197 -120 -65 -277 -99 -696 -152 -71 -9 -161 -25 -200 -36
-38 -10 -128 -26 -200 -34 -71 -9 -155 -25 -185 -35 -85 -28 -130 -35 -130
-19 0 29 43 81 90 111 56 35 61 48 25 72 -34 22 -31 37 10 64 43 27 71 28 85
2 12 -23 48 -27 56 -6 3 8 29 30 57 49 29 19 105 84 171 143 65 60 128 114
139 120 13 8 56 10 121 7 112 -6 243 15 371 61 86 30 126 32 149 7z m-2184
-48 c0 -25 -1 -26 -16 -11 -9 9 -13 21 -10 27 13 20 26 11 26 -16z m-1426 -92
c9 -14 -4 -41 -20 -41 -8 0 -14 8 -14 18 0 29 22 43 34 23z m1586 -16 c0 -14
-42 -35 -70 -35 -31 0 -25 37 8 48 32 10 62 5 62 -13z m-1172 -75 c28 -42 29
-62 0 -58 -26 4 -63 61 -54 84 8 22 27 13 54 -26z m557 14 c0 -10 -8 -20 -17
-22 -18 -3 -26 27 -11 42 12 11 28 0 28 -20z m1675 -59 c0 -21 -47 -68 -62
-63 -22 8 -20 27 6 53 28 28 56 33 56 10z m-3952 -49 c3 -12 -1 -17 -10 -14
-7 3 -15 13 -16 22 -3 12 1 17 10 14 7 -3 15 -13 16 -22z m1818 -84 c-15 -59
-20 -67 -35 -57 -19 11 -12 71 10 99 30 39 41 20 25 -42z m332 -3 c-5 -67 -11
-77 -34 -58 -12 10 -14 23 -10 52 15 94 51 99 44 6z m-138 9 c0 -60 -11 -84
-34 -75 -25 10 -31 55 -13 93 26 53 47 45 47 -18z m-1305 12 c0 -27 -22 -39
-31 -16 -8 22 3 49 19 43 6 -2 12 -14 12 -27z m2393 -68 c17 -26 32 -51 32
-55 0 -15 -40 -6 -49 11 -14 26 -30 92 -23 92 4 0 22 -21 40 -48z m-308 28 c0
-21 -189 -131 -256 -149 -24 -7 -64 -31 -98 -61 -31 -27 -62 -50 -67 -50 -6 0
-28 -14 -49 -31 -44 -36 -67 -33 -92 11 -22 39 -55 40 -69 3 -5 -15 -30 -48
-55 -75 -57 -61 -57 -71 2 -62 30 4 54 2 70 -7 20 -10 36 -10 97 5 40 9 97 28
127 42 30 14 73 26 95 27 l40 2 3 -78 c2 -46 -2 -84 -8 -92 -15 -18 -159 -37
-222 -29 -29 4 -70 13 -91 20 -26 9 -45 10 -62 4 -36 -14 -31 -30 9 -30 39 0
86 -33 86 -60 0 -29 -36 -43 -86 -35 -35 5 -45 3 -50 -9 -3 -9 -13 -16 -20
-16 -8 0 -37 -20 -63 -45 -26 -25 -53 -45 -60 -45 -20 0 -12 36 14 64 46 50
24 76 -64 76 -68 0 -79 -6 -91 -52 -15 -55 -33 -43 -45 30 -5 34 -16 67 -22
74 -21 19 -15 51 17 101 17 26 30 54 30 62 0 23 -29 18 -54 -10 -29 -31 -32
-31 -59 1 -22 25 -23 25 -56 8 -26 -13 -49 -15 -101 -11 -131 11 -222 52 -206
93 5 14 17 16 74 12 37 -3 87 -13 112 -23 54 -21 110 -30 110 -19 0 4 -17 25
-37 46 -28 29 -45 38 -70 38 -37 0 -53 21 -53 72 0 55 12 65 57 46 21 -9 55
-19 76 -22 36 -5 38 -3 62 44 30 59 41 67 56 39 13 -26 6 -84 -18 -135 l-18
-36 28 -24 c17 -15 41 -24 61 -24 20 0 40 -8 51 -20 10 -11 24 -20 31 -20 18
0 34 33 34 70 0 36 38 80 71 80 11 0 34 14 50 31 34 36 47 33 31 -8 -6 -15
-14 -53 -17 -83 -8 -73 -23 -117 -40 -124 -19 -7 -20 -36 -2 -36 28 0 110 117
128 182 9 37 11 38 54 38 25 0 76 12 117 29 40 15 94 31 119 35 26 4 73 23
105 42 33 20 79 42 104 49 25 7 70 22 100 33 61 24 80 26 80 12z m-3242 -23
c5 -24 -15 -21 -28 4 -10 18 -9 20 7 17 10 -2 19 -11 21 -21z m1963 -58 c8
-15 6 -21 -6 -26 -21 -7 -50 21 -42 41 8 19 34 11 48 -15z m-353 -11 c46 -50
49 -105 6 -96 -35 6 -73 118 -41 118 8 0 23 -10 35 -22z m1782 7 c15 -19 6
-47 -14 -39 -17 6 -29 32 -20 45 8 13 20 11 34 -6z m1928 -13 c19 -25 14 -72
-13 -119 -45 -75 -65 -80 -475 -108 -124 -8 -250 -18 -280 -21 -53 -6 -56 -5
-93 31 -45 44 -44 64 3 87 66 32 437 101 631 117 64 6 132 16 150 24 37 15 57
12 77 -11z m-1510 -20 c5 -32 -15 -52 -49 -52 -32 0 -36 12 -19 55 13 35 63
33 68 -3z m-2978 -2 c22 -11 44 -29 50 -39 15 -30 12 -69 -7 -80 -14 -8 -18
-22 -16 -70 2 -70 17 -108 38 -91 15 12 18 5 30 -64 l6 -39 -24 28 c-33 39
-57 29 -57 -25 0 -46 15 -88 54 -144 28 -42 35 -102 14 -135 -9 -15 -9 -28 2
-61 13 -38 12 -43 -3 -52 -47 -26 -70 -56 -73 -93 -2 -21 -8 -43 -14 -49 -14
-14 -13 -49 2 -64 9 -9 7 -20 -9 -49 -35 -63 -58 -287 -33 -318 6 -8 10 -29 8
-47 -3 -30 -6 -33 -39 -36 -54 -5 -69 16 -69 93 0 75 -10 106 -50 152 -41 47
-39 80 7 119 l37 31 -22 74 c-23 79 -42 220 -42 308 0 30 9 84 19 120 29 97
83 367 79 393 -4 32 -20 29 -37 -7 -22 -45 -69 -229 -77 -296 -13 -113 -44
-75 -44 53 0 96 19 194 43 231 9 15 43 44 76 66 59 40 71 56 71 92 0 25 29 25
80 -1z m2390 -35 c17 -9 30 -19 30 -24 0 -8 -86 -38 -161 -56 -28 -7 -179 -22
-179 -18 0 10 93 63 112 63 13 1 43 12 68 25 53 28 90 31 130 10z m-2760 -42
c0 -20 -24 -11 -28 10 -2 12 1 15 12 11 9 -3 16 -13 16 -21z m1075 -28 c46
-50 55 -55 93 -55 23 0 42 -4 42 -9 0 -5 -20 -19 -45 -31 -67 -33 -117 -14
-154 57 -15 30 -14 93 1 93 7 0 35 -25 63 -55z m2345 15 c0 -10 -58 -50 -72
-50 -12 0 -9 35 4 48 15 15 68 16 68 2z m-3640 -22 c54 -27 63 -54 24 -68 -33
-13 -55 -6 -94 27 -67 56 -17 85 70 41z m3345 2 c8 -12 -21 -60 -35 -60 -14 0
-12 44 2 58 15 15 25 15 33 2z m-3107 -46 c2 -28 2 -28 -13 -10 -18 24 -20 49
-2 44 6 -3 13 -18 15 -34z m512 -68 c0 -15 -3 -16 -15 -6 -9 7 -15 28 -14 49
l1 36 13 -30 c8 -16 14 -38 15 -49z m3051 11 c-18 -18 -25 1 -11 30 l14 28 4
-24 c2 -13 -1 -28 -7 -34z m309 31 c0 -16 -61 -78 -76 -78 -14 0 -54 51 -54
68 0 14 24 19 83 21 30 1 47 -3 47 -11z m-2896 -58 c15 -46 49 -58 115 -41 45
11 57 10 121 -10 38 -13 69 -28 67 -34 -2 -5 -28 -11 -58 -12 -95 -5 -139 -13
-139 -28 0 -7 15 -17 33 -20 17 -4 44 -14 59 -23 25 -15 30 -15 63 1 47 22 65
21 65 -3 0 -38 -79 -53 -149 -29 -44 16 -76 5 -91 -31 -16 -38 0 -80 29 -80
23 0 51 -25 51 -46 0 -7 -13 -26 -30 -40 -20 -19 -31 -40 -36 -70 -7 -51 -16
-60 -35 -37 -10 11 -15 59 -17 172 -3 121 -7 160 -19 173 -21 24 -40 12 -73
-45 l-29 -51 -10 28 c-17 44 -13 99 15 186 28 90 48 102 68 40z m1743 -5 c-8
-56 10 -61 54 -14 24 26 29 28 29 12 0 -22 -48 -100 -78 -127 -22 -19 -22 -19
-37 18 -8 20 -17 36 -19 36 -2 0 -23 -16 -47 -35 -54 -46 -75 -33 -33 22 43
57 115 133 127 133 6 0 7 -18 4 -45z m273 15 c0 -12 -28 -25 -36 -17 -9 9 6
27 22 27 8 0 14 -5 14 -10z m-2240 -24 c0 -25 -22 -51 -33 -39 -9 8 -9 48 0
56 14 15 33 6 33 -17z m4256 12 c2 -2 4 -24 6 -48 l3 -45 -50 -13 c-34 -9 -71
-11 -115 -5 -226 26 -670 -24 -670 -77 0 -17 25 -24 120 -31 52 -4 128 -11
168 -15 69 -7 72 -6 72 14 0 45 11 45 619 37 317 -4 681 -10 809 -14 263 -7
255 -4 268 -87 5 -34 1 -53 -16 -89 -12 -25 -30 -50 -40 -55 -10 -5 -26 -24
-37 -42 -16 -27 -55 -52 -189 -123 -157 -84 -173 -90 -227 -90 -54 0 -60 2
-86 34 -19 23 -33 32 -45 28 -21 -8 -21 -33 2 -47 15 -9 11 -15 -33 -56 -68
-62 -133 -106 -145 -99 -22 14 -9 57 31 100 45 48 46 61 5 51 -17 -4 -54 -41
-102 -102 -78 -98 -121 -134 -162 -134 -13 0 -37 -7 -54 -16 -31 -16 -178 -44
-233 -44 l-31 0 6 53 5 52 60 7 c69 7 161 45 189 77 24 26 42 27 58 1 19 -31
64 -26 82 8 28 54 171 158 260 188 25 9 46 22 46 29 0 8 -15 25 -33 39 -74 57
-189 78 -488 92 -196 9 -236 2 -298 -47 -90 -72 -158 -86 -240 -49 -53 24 -69
25 -93 3 -13 -12 -41 -19 -86 -21 -81 -4 -122 9 -122 39 0 19 -4 21 -37 14
-21 -3 -65 -17 -98 -31 -33 -13 -63 -20 -68 -15 -5 5 -1 25 7 46 9 21 16 39
16 41 0 12 -41 1 -87 -23 -40 -21 -55 -25 -64 -16 -16 16 31 59 74 69 18 3 50
23 73 44 23 21 60 48 82 61 48 27 50 38 21 111 -26 67 -17 89 53 124 80 41
225 59 603 78 73 3 205 -1 211 -6z m541 -39 c294 -29 393 -44 393 -58 0 -21
-234 -28 -362 -11 -40 5 -129 14 -198 20 -169 14 -246 28 -273 51 -19 16 -20
20 -7 29 17 11 35 10 447 -31z m-2447 25 c0 -11 -23 -49 -34 -56 -17 -12 -46
-9 -46 4 0 15 50 57 68 58 6 0 12 -3 12 -6z m176 -16 c10 -15 -32 -48 -62 -48
-30 0 -38 14 -16 32 31 28 67 35 78 16z m149 -29 c0 -7 -8 -15 -17 -17 -18 -3
-25 18 -11 32 10 10 28 1 28 -15z m649 -7 c13 -22 -55 -62 -105 -62 -30 0 -31
1 -17 23 21 32 109 60 122 39z m-2601 -54 c12 -7 38 -17 57 -23 24 -7 36 -17
38 -33 4 -26 -1 -27 -34 -6 -20 14 -30 15 -50 5 -34 -15 -60 -14 -89 5 -32 21
-32 38 3 51 37 15 50 15 75 1z m2347 5 c0 -12 -33 -43 -47 -43 -18 0 -17 15 3
34 15 16 44 22 44 9z m-3287 -20 c9 -9 -13 -34 -24 -27 -14 8 -11 34 4 34 8 0
17 -3 20 -7z m2997 -2 c0 -13 -40 -61 -51 -61 -12 0 -12 27 1 51 11 19 50 27
50 10z m-1890 -142 c0 -19 -25 -37 -37 -26 -3 3 -7 28 -10 54 l-4 48 25 -28
c14 -15 26 -37 26 -48z m-1697 55 c3 -3 1 -14 -6 -25 -9 -15 -5 -31 26 -91 40
-79 48 -134 21 -145 -12 -4 -36 13 -80 59 -35 36 -64 70 -64 76 0 6 11 24 25
40 14 17 25 37 25 46 0 10 -9 16 -25 16 -29 0 -34 16 -7 23 27 7 78 8 85 1z
m4053 -28 c-87 -53 -111 -74 -119 -101 -8 -27 -13 -31 -45 -31 -21 0 -50 -4
-65 -8 -25 -7 -28 -6 -25 9 3 16 51 47 207 131 42 23 85 23 47 0z m-1006 -20
c0 -14 -11 -38 -25 -54 -30 -36 -45 -74 -45 -113 0 -27 3 -29 38 -29 52 0 124
39 205 110 71 63 105 85 114 76 3 -3 -8 -19 -26 -35 -17 -16 -31 -36 -31 -45
0 -9 -22 -27 -51 -42 -29 -14 -70 -45 -92 -70 -22 -24 -59 -53 -83 -65 -56
-27 -74 -57 -48 -76 18 -14 18 -15 -5 -34 -32 -26 -68 -34 -86 -19 -21 17 -20
128 0 157 39 55 -48 27 -115 -38 -46 -45 -85 -58 -106 -37 -13 12 -12 17 7 34
11 10 51 35 87 54 47 25 79 51 110 90 74 94 133 160 143 160 5 0 9 -11 9 -24z
m-164 -10 c11 -30 -62 -130 -110 -150 -17 -7 -43 -29 -58 -48 -26 -34 -55 -50
-109 -62 -15 -3 -46 -21 -68 -40 -23 -20 -47 -33 -54 -30 -7 2 -25 30 -42 62
-20 37 -37 58 -50 60 -31 4 -87 -38 -113 -86 -26 -46 -52 -56 -52 -19 0 30 81
197 106 218 12 10 54 20 119 27 55 5 102 8 104 7 2 -2 -7 -18 -19 -35 -53 -75
23 -115 84 -44 75 86 84 94 115 94 20 0 41 10 61 30 33 32 77 40 86 16z m272
2 c21 -21 13 -41 -30 -85 -42 -43 -61 -52 -73 -33 -8 13 21 68 53 103 29 31
33 32 50 15z m485 -8 c14 -11 38 -20 55 -20 16 0 41 9 55 20 31 25 37 25 37 0
0 -43 -127 -152 -203 -174 -95 -28 -100 3 -14 93 48 50 58 66 45 69 -10 2 -33
-9 -53 -23 -36 -28 -44 -21 -24 18 23 43 61 49 102 17z m-2368 -20 c0 -8 -8
-16 -17 -18 -13 -2 -18 3 -18 18 0 15 5 20 18 18 9 -2 17 -10 17 -18z m-1571
-36 c3 -9 2 -23 -3 -31 -7 -14 -10 -13 -20 6 -12 21 -8 41 9 41 4 0 11 -7 14
-16z m1873 -11 c5 -14 -38 -27 -164 -49 -109 -18 -133 -13 -133 26 0 15 11 19
63 24 34 3 76 8 92 10 58 7 138 1 142 -11z m1772 -19 c-13 -16 -39 -19 -39 -4
0 12 32 30 43 23 4 -3 3 -11 -4 -19z m-1125 -15 c5 -14 6 -41 2 -60 -7 -38
-91 -189 -106 -189 -30 0 -15 109 19 141 16 15 21 32 21 67 0 71 43 99 64 41z
m1230 12 c9 -14 -22 -34 -40 -27 -13 5 -14 9 -4 21 14 17 36 20 44 6z m-1800
-74 l48 -20 -51 -19 c-28 -11 -51 -25 -51 -32 0 -22 36 -47 76 -53 44 -7 74
-28 74 -53 0 -23 -38 -70 -55 -70 -8 0 -51 29 -95 65 l-80 64 -31 -46 -32 -47
-54 58 c-78 84 -90 104 -72 122 8 8 52 21 97 29 45 8 90 19 100 24 21 13 61 6
126 -22z m176 3 c12 -17 38 -39 58 -48 33 -16 37 -22 36 -54 -1 -27 -13 -53
-49 -100 -61 -80 -88 -142 -87 -195 0 -24 -4 -43 -8 -43 -19 0 -70 53 -70 73
0 11 25 63 56 114 68 112 77 161 31 174 -59 16 -70 40 -36 83 27 34 43 33 69
-4z m-1144 -9 c-10 -16 -46 -13 -46 3 0 16 30 27 44 15 4 -4 5 -12 2 -18z m79
-15 c8 -13 13 -31 9 -40 -8 -20 -13 -20 -36 1 -16 14 -18 15 -18 0 0 -21 -19
-32 -32 -19 -13 13 27 82 48 82 7 0 20 -11 29 -24z m-977 -2 c30 -21 29 -52
-3 -60 -49 -12 -106 24 -92 60 8 21 65 21 95 0z m3865 -66 c27 -14 16 -31 -29
-47 -35 -12 -46 -12 -84 0 -50 16 -73 44 -50 60 17 11 135 2 163 -13z m-2945
-46 c2 -15 -2 -22 -12 -22 -11 0 -16 9 -16 26 0 31 23 28 28 -4z m3243 -3
c-35 -28 -51 -22 -17 7 15 14 31 22 35 19 3 -4 -5 -15 -18 -26z m229 9 c52
-36 60 -55 31 -79 -28 -23 -77 -24 -131 -3 -51 20 -51 48 -1 81 42 29 60 29
101 1z m400 17 c0 -2 -14 -12 -31 -21 -32 -16 -58 -7 -45 15 7 11 76 16 76 6z
m-1162 -21 c31 -21 30 -73 -3 -108 -53 -58 -181 -89 -192 -47 -6 23 -43 41
-86 42 -69 1 -69 12 0 54 118 70 231 94 281 59z m2017 -29 c-52 -43 -145 -107
-145 -99 0 4 11 26 25 49 26 46 73 75 120 74 l30 0 -30 -24z m-4267 -32 c3
-36 -1 -44 -22 -59 -38 -24 -59 -12 -51 28 18 84 68 105 73 31z m2586 31 c21
-21 20 -30 -6 -48 -44 -31 -135 -11 -113 25 9 13 64 38 87 39 9 0 24 -7 32
-16z m736 -45 l0 -32 63 7 62 6 -31 -25 c-41 -32 -64 -91 -64 -166 0 -51 4
-64 25 -85 32 -32 31 -37 -6 -68 -39 -33 -57 -33 -65 2 -17 76 -39 123 -84
179 -28 34 -50 68 -50 76 0 7 16 21 36 30 19 10 34 23 31 30 -4 12 -12 12 -81
1 -27 -5 -41 -2 -47 7 -14 23 -10 29 19 29 15 0 54 9 87 20 89 28 105 27 105
-11z m750 24 c0 -13 -53 -63 -67 -63 -25 0 -13 30 20 50 34 21 47 25 47 13z
m-4670 -12 c0 -12 -20 -25 -27 -18 -7 7 6 27 18 27 5 0 9 -4 9 -9z m4255 -12
c0 -7 -8 -15 -17 -17 -18 -3 -25 18 -11 32 10 10 28 1 28 -15z m-2577 -39 c41
-25 41 -37 -2 -32 -26 3 -37 -1 -50 -20 -14 -19 -18 -21 -26 -8 -14 22 -12 67
3 73 24 10 42 7 75 -13z m1352 -12 c13 -25 13 -31 0 -55 -19 -34 -48 -40 -90
-18 -44 23 -47 41 -14 76 37 39 81 37 104 -3z m234 17 c11 -28 -5 -45 -42 -45
l-36 0 29 30 c33 34 40 36 49 15z m326 -35 c13 -9 12 -13 -6 -28 -12 -9 -36
-25 -53 -34 -19 -11 -31 -25 -31 -38 0 -29 11 -25 70 22 l52 41 36 -19 c19
-10 37 -26 40 -36 2 -9 16 -21 31 -26 19 -7 31 -20 37 -43 8 -26 15 -33 31
-31 27 4 36 -21 23 -69 -12 -45 -45 -70 -92 -73 -35 -1 -45 17 -47 86 -1 20
-5 39 -10 42 -5 3 -36 -12 -69 -34 -33 -22 -66 -40 -73 -40 -17 0 -99 80 -99
97 0 7 9 17 20 23 11 6 20 16 20 21 0 11 -18 9 -82 -7 -22 -5 -35 0 -62 22
-19 16 -45 36 -57 45 -27 19 -19 36 27 55 34 14 124 20 124 7 0 -3 -7 -15 -16
-25 -15 -16 -15 -18 -1 -24 24 -9 80 13 123 47 41 32 43 33 64 19z m-4080 -53
c0 -23 -5 -49 -10 -57 -23 -35 -41 50 -19 91 15 29 29 13 29 -34z m1487 42
c15 -6 44 -11 63 -13 32 -2 35 -5 35 -31 0 -46 -39 -45 -93 0 -23 20 -42 41
-42 46 0 11 3 11 37 -2z m3113 6 c0 -12 -33 -55 -41 -55 -13 0 -11 34 3 48 12
12 38 17 38 7z m1098 -31 c40 -28 27 -76 -28 -104 -29 -15 -40 -17 -48 -7 -30
37 -19 96 22 115 28 14 28 14 54 -4z m-3338 -13 c15 -29 12 -63 -7 -90 -15
-23 -17 -23 -30 -6 -13 19 -18 96 -6 108 12 13 32 7 43 -12z m-2467 -3 c8 -24
-13 -47 -54 -58 -50 -14 -64 -4 -54 39 6 29 9 31 55 31 30 0 50 -5 53 -12z
m3162 -7 c110 -25 95 -56 -22 -46 -102 8 -171 34 -157 57 8 12 103 6 179 -11z
m1815 5 c0 -18 -17 -29 -30 -21 -8 5 -7 11 1 21 15 18 29 18 29 0z m-3843 -35
c30 -44 41 -110 49 -291 5 -109 12 -168 24 -200 26 -67 32 -120 15 -126 -8 -3
-17 -22 -21 -42 -3 -21 -8 -44 -11 -52 -17 -50 -40 135 -49 399 -6 199 -7 205
-31 229 -16 16 -31 22 -45 19 -18 -5 -20 -2 -15 30 7 38 34 76 51 70 6 -2 21
-18 33 -36z m2593 23 c0 -17 -52 -74 -68 -74 -5 0 -17 9 -27 20 -15 17 -16 22
-4 36 27 33 99 46 99 18z m-3892 -68 c-5 -34 -42 -27 -46 7 -2 16 -1 36 3 45
6 15 9 14 26 -7 11 -13 19 -34 17 -45z m2088 43 c3 -6 2 -15 -4 -21 -7 -7 -14
-3 -21 11 -10 17 -9 21 3 21 8 0 18 -5 22 -11z m889 -19 c27 -53 11 -88 -26
-54 -19 17 -24 40 -13 68 9 24 22 19 39 -14z m1945 -10 c0 -42 9 -50 31 -24
25 30 107 60 97 35 -1 -5 -31 -39 -66 -76 l-63 -67 -23 21 c-13 12 -35 21 -54
21 -19 0 -35 6 -38 14 -13 33 57 116 97 116 15 0 19 -8 19 -40z m-1348 -10
c17 -23 18 -34 9 -95 -5 -39 -15 -113 -21 -165 -7 -51 -19 -112 -26 -133 -8
-22 -14 -58 -14 -81 0 -41 -12 -125 -70 -496 -48 -303 -67 -389 -101 -439 -65
-99 -98 -243 -64 -281 16 -17 16 -21 1 -42 -9 -12 -16 -32 -16 -43 0 -11 -5
-37 -10 -57 -8 -29 -18 -39 -45 -48 -47 -15 -74 -5 -91 36 -13 32 -13 38 11
87 20 44 27 78 35 194 5 80 18 168 29 204 10 35 22 89 25 119 4 30 18 82 31
115 13 33 31 101 39 150 9 50 26 111 36 137 11 26 20 67 20 91 0 27 6 49 15
57 17 14 65 158 65 194 0 13 -7 29 -15 36 -8 7 -15 23 -15 37 0 32 27 83 45
83 23 0 27 18 10 49 -18 35 -19 65 -4 92 10 19 11 20 23 3 32 -44 52 49 20 95
-18 26 -15 91 7 117 17 21 48 14 71 -16z m423 -5 c18 -9 37 -27 43 -40 26 -56
-35 -109 -79 -69 -11 10 -39 20 -62 23 -40 6 -42 7 -42 41 0 27 6 37 25 47 34
17 75 16 115 -2z m1095 -12 c0 -10 -42 -53 -52 -53 -15 0 -8 19 14 40 22 20
38 26 38 13z m-5016 -62 c19 -31 -36 -64 -62 -38 -13 13 -13 19 -2 31 14 17
55 22 64 7z m4060 -27 c21 -20 20 -26 -5 -58 -21 -27 -53 -34 -64 -15 -14 22
19 89 45 89 5 0 16 -7 24 -16z m-1220 -80 c17 -25 17 -26 -5 -22 -13 2 -30 15
-38 30 -13 22 -13 30 -1 55 l13 28 7 -32 c4 -18 15 -44 24 -59z m134 64 c18
-18 15 -33 -14 -67 -42 -50 -92 -34 -63 21 28 54 54 69 77 46z m-1025 -54 c-9
-23 -33 -16 -33 9 0 13 3 27 7 31 11 10 33 -23 26 -40z m3345 23 c2 -10 -3
-17 -12 -17 -23 0 -20 -18 9 -52 14 -16 25 -33 25 -38 0 -13 -41 -19 -66 -10
-19 8 -24 17 -24 45 0 47 26 97 48 93 9 -2 18 -11 20 -21z m472 -1 c0 -7 -7
-19 -15 -26 -12 -10 -15 -9 -15 7 0 11 3 23 7 26 11 12 23 8 23 -7z m-6026
-47 c-7 -12 -54 -12 -54 1 0 16 34 29 47 18 7 -6 10 -14 7 -19z m876 1 c7 -52
-12 -67 -32 -25 -8 19 -8 28 2 40 14 17 27 10 30 -15z m520 -16 c15 -38 12
-100 -5 -114 -13 -10 -17 -7 -30 23 -8 20 -15 43 -15 51 0 25 19 66 30 66 6 0
15 -12 20 -26z m4935 17 c7 -13 -32 -34 -46 -26 -7 5 -6 11 2 21 13 16 35 18
44 5z m-931 -17 c19 -19 19 -19 2 -33 -11 -9 -18 -8 -30 4 -9 9 -16 23 -16 31
0 19 25 18 44 -2z m-1444 -39 c0 -19 27 -38 35 -25 9 15 45 12 45 -4 0 -7 -9
-25 -20 -39 -12 -14 -25 -40 -31 -57 -16 -46 -38 -39 -32 10 5 38 4 40 -20 40
-46 0 -56 49 -19 92 11 14 18 15 29 7 7 -6 13 -17 13 -24z m868 23 c-5 -13
-68 -30 -68 -18 0 8 39 28 58 29 8 1 12 -5 10 -11z m-1848 -18 c0 -12 -28 -25
-36 -17 -9 9 6 27 22 27 8 0 14 -5 14 -10z m1573 -32 c4 -10 8 -10 15 1 12 17
32 -39 35 -101 l2 -43 -55 -6 c-72 -9 -90 -17 -101 -46 -14 -38 -10 -73 15
-133 13 -29 22 -60 19 -67 -7 -17 -33 -17 -33 0 0 7 -14 35 -31 62 -28 44 -31
55 -26 103 7 63 26 88 78 102 63 17 74 68 18 85 -18 6 -26 35 -12 48 11 12 71
7 76 -5z m-1869 -54 c22 -46 26 -95 9 -101 -20 -7 -53 58 -53 105 0 54 17 52
44 -4z m-2355 10 c20 -26 22 -26 40 -10 22 20 66 18 66 -3 0 -8 -7 -17 -15
-21 -8 -4 -30 -15 -48 -25 -38 -19 -85 -15 -114 12 -24 21 -23 39 4 57 31 22
43 20 67 -10z m1417 1 c7 -29 1 -41 -15 -30 -14 8 -14 55 -1 55 5 0 12 -11 16
-25z m772 -13 c4 -38 -21 -84 -42 -76 -7 3 -19 23 -25 45 -15 49 -2 72 38 67
21 -2 27 -9 29 -36z m1736 30 c13 -21 -49 -61 -67 -43 -7 7 -5 16 8 31 18 20
50 27 59 12z m1125 -21 c26 -25 31 -36 31 -77 l0 -48 -36 35 c-42 40 -68 85
-60 105 8 22 31 17 65 -15z m825 -13 c-10 -33 -76 -128 -115 -166 -42 -41 -86
-65 -106 -58 -23 9 10 56 113 157 93 91 121 108 108 67z m-5394 -12 c0 -8 -5
-18 -11 -22 -14 -8 -33 11 -25 25 10 16 36 13 36 -3z m4811 -6 c43 -23 1 -61
-52 -47 -33 9 -49 -3 -49 -35 0 -35 -23 -83 -45 -91 -20 -8 -19 7 1 38 13 19
15 38 9 79 l-6 55 34 -6 c19 -3 43 0 53 6 24 13 31 13 55 1z m-4936 -41 c8
-23 -7 -45 -24 -35 -12 8 -15 39 -4 49 12 12 22 7 28 -14z m4571 -25 c8 -12
10 -24 4 -33 -12 -21 -57 1 -72 35 -24 51 34 50 68 -2z m-1306 -64 c0 -16 -4
-30 -10 -30 -5 0 -10 14 -10 30 0 17 5 30 10 30 6 0 10 -13 10 -30z m-1365
-21 c-9 -13 -31 -11 -44 5 -9 11 -9 15 1 19 18 6 50 -12 43 -24z m-1150 -91
c15 -62 41 -149 58 -193 18 -48 31 -102 33 -135 1 -30 2 -61 3 -67 0 -7 17
-30 36 -51 19 -21 39 -52 45 -68 10 -25 8 -31 -9 -45 -16 -13 -21 -29 -21 -61
0 -49 13 -73 50 -91 29 -14 37 -41 20 -62 -20 -24 -46 -17 -78 19 -42 48 -70
130 -82 239 -6 50 -24 153 -40 227 -40 182 -68 400 -51 400 5 0 21 -51 36
-112z m4881 67 c-5 -14 -9 -15 -21 -5 -12 10 -13 16 -4 27 15 18 34 1 25 -22z
m-6021 16 c7 -12 -24 -43 -36 -35 -5 3 -5 13 1 25 11 20 25 25 35 10z m1952
-150 c4 -81 2 -120 -5 -125 -32 -19 -52 121 -32 219 17 84 30 53 37 -94z
m2854 139 c18 0 40 -69 33 -106 -8 -43 -17 -49 -47 -29 -13 8 -31 13 -39 10
-35 -14 -62 -99 -73 -230 -13 -169 -47 -300 -123 -481 -16 -39 -35 -96 -41
-125 -7 -30 -26 -76 -44 -104 -39 -59 -91 -174 -140 -305 -42 -115 -53 -171
-37 -200 10 -19 6 -27 -34 -70 -28 -30 -49 -63 -56 -91 -29 -112 -43 -155 -56
-170 -26 -29 -22 -89 6 -89 11 0 28 -4 38 -9 9 -5 29 -13 43 -19 16 -6 35 -28
49 -56 26 -55 38 -126 21 -126 -6 0 -11 4 -11 10 0 5 -19 22 -42 37 -53 34
-59 42 -51 71 6 26 -12 52 -38 52 -14 0 -23 -14 -35 -57 -16 -53 -15 -57 1
-69 10 -7 21 -15 25 -16 9 -3 13 -30 11 -65 -1 -30 -25 -29 -45 2 -28 43 -37
30 -34 -49 2 -41 0 -78 -4 -82 -12 -11 -56 24 -74 58 -14 26 -16 50 -10 128 8
125 32 258 56 312 10 24 41 131 69 238 27 107 73 260 101 340 28 80 65 188 82
240 17 52 39 120 49 150 244 747 257 784 297 831 27 33 45 27 56 -16 4 -14 11
-25 16 -25 13 0 23 45 17 75 -5 27 17 48 41 40 8 -3 18 -5 23 -5z m177 -160
c-7 -137 -31 -172 -70 -100 -23 44 -23 87 1 148 18 44 18 52 5 77 -24 47 -15
50 27 10 l41 -40 -4 -95z m-4883 97 c21 -51 30 -133 21 -182 -7 -33 -9 -36
-39 -33 -47 4 -59 36 -54 133 8 136 37 169 72 82z m5526 33 c12 -7 19 -21 19
-41 0 -24 -17 -47 -87 -120 -75 -77 -100 -96 -177 -134 -50 -24 -145 -78 -211
-121 -150 -97 -201 -124 -236 -124 -38 0 -43 12 -29 70 18 75 61 135 107 150
21 7 42 19 46 26 4 8 19 14 33 14 14 0 37 9 52 20 15 10 49 24 75 30 60 13
115 40 184 92 29 21 64 43 77 48 14 5 33 22 42 37 40 65 62 75 105 53z m-4195
-74 c-11 -45 -73 -45 -64 0 4 22 49 47 62 34 5 -5 6 -20 2 -34z m2839 35 c-6
-5 -20 -12 -32 -16 -17 -5 -23 -2 -23 9 0 11 10 16 32 16 19 0 28 -4 23 -9z
m1675 -6 c0 -9 -7 -18 -16 -22 -18 -7 -39 11 -30 26 11 17 46 13 46 -4z
m-3222 -51 c4 -41 -19 -61 -53 -46 -29 13 -33 43 -9 67 26 26 58 15 62 -21z
m-2293 6 c0 -22 -29 -18 -33 3 -3 14 1 18 15 15 10 -2 18 -10 18 -18z m3180 2
c0 -18 -20 -15 -23 4 -3 10 1 15 10 12 7 -3 13 -10 13 -16z m-3389 -18 c15
-61 -19 -154 -60 -162 -22 -5 -21 26 4 63 12 18 20 47 20 71 0 22 3 44 7 47
13 13 23 7 29 -19z m4994 13 c0 -17 -38 -52 -47 -44 -10 11 15 57 32 57 8 0
15 -6 15 -13z m-2601 -31 c14 -16 1 -29 -52 -51 -50 -21 -59 -19 -55 12 5 44
81 71 107 39z m3235 -5 c19 -21 14 -41 -9 -41 -17 0 -38 36 -30 50 9 15 20 12
39 -9z m316 -1 c0 -12 -38 -89 -53 -108 -8 -11 -12 -11 -18 0 -16 24 -9 56 17
87 25 30 54 41 54 21z m-1072 -12 c-6 -16 -36 -34 -44 -25 -9 9 15 37 33 37 8
0 13 -5 11 -12z m-3693 -29 c0 -7 -8 -15 -17 -17 -18 -3 -25 18 -11 32 10 10
28 1 28 -15z m751 -20 c-7 -36 -43 -99 -57 -99 -13 0 -11 47 2 73 31 59 65 75
55 26z m-1522 -41 c-14 -24 -46 -63 -69 -88 -24 -25 -55 -69 -70 -97 -14 -29
-29 -53 -33 -53 -4 0 -13 14 -19 30 -11 29 -13 30 -76 30 -62 0 -65 1 -77 30
-10 24 -19 30 -41 30 -33 0 -35 6 -13 39 14 19 22 22 53 16 148 -27 182 -18
301 74 36 28 66 47 68 42 2 -5 -9 -29 -24 -53z m623 20 c-3 -7 -5 -2 -5 12 0
14 2 19 5 13 2 -7 2 -19 0 -25z m3089 -33 c19 -29 5 -65 -26 -65 -30 0 -71 84
-55 110 9 14 62 -16 81 -45z m-1288 -9 c3 -12 -1 -17 -10 -14 -7 3 -15 13 -16
22 -3 12 1 17 10 14 7 -3 15 -13 16 -22z m-338 -13 c0 -10 -32 -43 -42 -43
-12 0 -10 24 4 38 13 13 38 16 38 5z m116 -32 c-11 -16 -56 -14 -56 4 0 22 32
36 49 20 7 -7 10 -18 7 -24z m2872 -12 c-6 -4 -20 -3 -31 2 -15 8 -16 13 -6
25 10 13 14 12 31 -3 14 -12 15 -18 6 -24z m-3456 -44 c0 -5 -6 -14 -15 -19
-17 -11 -51 10 -41 26 7 12 54 6 56 -7z m3834 -13 c-8 -9 -19 -13 -22 -9 -10
9 16 38 28 31 6 -4 4 -13 -6 -22z m-4266 -22 c0 -12 -28 -25 -36 -17 -9 9 6
27 22 27 8 0 14 -5 14 -10z m490 -7 c0 -18 -28 -53 -42 -53 -13 0 -9 24 8 48
18 26 34 29 34 5z m3463 -4 c15 -24 0 -71 -21 -67 -12 2 -18 15 -20 46 -3 37
0 43 14 40 9 -1 21 -10 27 -19z m-5546 -30 c6 -20 14 -54 18 -75 6 -37 6 -38
-10 -19 -35 42 -67 106 -61 121 10 26 40 11 53 -27z m2466 29 c31 1 57 -1 57
-5 -1 -23 -24 -37 -72 -44 -29 -4 -68 -11 -85 -14 -26 -6 -34 -4 -39 9 -10 25
35 69 61 60 11 -4 46 -7 78 -6z m2952 -30 c52 -61 62 -123 20 -123 -14 0 -30
18 -54 64 l-34 65 -14 -47 c-15 -52 -26 -57 -60 -25 -32 30 -41 15 -21 -35 53
-137 179 -439 197 -475 21 -41 23 -42 70 -42 43 0 53 -4 75 -31 28 -33 33 -68
14 -87 -16 -16 -43 -15 -57 2 -6 8 -31 19 -55 25 -54 13 -101 63 -116 123 -42
163 -90 261 -120 243 -17 -10 -11 -37 17 -77 26 -39 77 -203 67 -220 -11 -18
-46 16 -75 74 -17 34 -56 125 -86 203 -59 150 -73 176 -73 131 0 -42 55 -196
115 -321 67 -140 87 -165 129 -165 23 0 41 -9 61 -30 17 -18 48 -35 72 -42 52
-13 55 -29 7 -51 -48 -23 -44 -54 11 -83 37 -19 40 -24 38 -60 -4 -58 -31
-141 -48 -148 -27 -10 -176 -25 -365 -36 -193 -12 -210 -17 -210 -61 0 -25 23
-31 146 -36 96 -5 119 -3 172 16 34 11 79 21 100 21 20 0 54 9 75 20 25 13 56
20 95 20 88 0 177 26 245 73 15 10 21 8 37 -10 10 -13 25 -23 33 -23 16 0 87
74 87 90 0 6 15 10 33 10 20 0 54 13 87 35 83 52 111 46 124 -27 11 -59 75
-88 125 -56 16 10 25 7 53 -14 18 -13 45 -28 61 -32 17 -4 27 -13 27 -25 0
-55 -32 -67 -68 -26 -36 42 -79 31 -115 -27 -20 -33 -33 -35 -40 -9 -3 12 -17
21 -41 25 -25 5 -45 18 -68 46 -17 22 -37 40 -44 40 -22 0 -64 -65 -72 -111
l-7 -44 -29 38 c-32 41 -43 45 -61 20 -11 -15 -13 -15 -24 5 -14 26 -36 29
-45 6 -3 -9 -6 -44 -6 -79 l0 -64 -34 6 c-43 7 -55 -11 -27 -41 26 -28 28 -86
4 -123 -11 -17 -20 -55 -23 -97 -4 -56 -9 -71 -22 -74 -24 -5 -34 20 -52 125
-33 192 -107 303 -202 303 -39 0 -49 -13 -58 -70 -10 -68 -71 -266 -109 -357
-70 -167 -155 -293 -227 -338 -23 -14 -46 -40 -54 -59 -8 -18 -19 -37 -26 -41
-15 -9 -60 -104 -60 -127 0 -12 8 -18 24 -18 28 0 43 16 48 50 5 40 31 30 48
-20 22 -64 35 -84 50 -75 8 5 10 20 7 42 -6 37 0 63 14 63 12 0 67 -98 79
-142 9 -31 15 -38 35 -38 35 0 32 22 -15 123 -22 47 -43 106 -46 131 -6 41 -4
48 23 75 60 59 159 62 245 5 67 -44 63 -75 -39 -276 -64 -128 -112 -193 -135
-186 -7 3 -37 34 -67 71 -49 61 -81 83 -81 57 0 -26 47 -100 97 -152 30 -32
51 -62 48 -68 -10 -17 -56 -11 -92 11 -42 26 -51 19 -34 -27 9 -25 10 -39 3
-46 -18 -18 -42 -1 -42 30 0 16 -7 35 -15 42 -17 14 -20 40 -6 40 5 0 13 9 16
21 9 28 -17 55 -61 63 -38 8 -46 31 -14 41 34 11 24 35 -14 35 -46 0 -66 9
-66 29 0 18 -18 41 -32 41 -25 0 17 -94 123 -276 74 -126 78 -174 15 -185 -39
-8 -29 -29 13 -29 26 0 41 -5 41 -12 0 -7 5 -30 11 -50 15 -56 40 -50 95 22
33 42 57 63 83 71 56 18 118 56 123 77 9 34 108 39 146 9 17 -14 11 -59 -22
-155 -28 -85 -60 -132 -88 -132 -12 0 -36 12 -55 26 -19 14 -40 23 -48 20 -16
-6 -55 -64 -55 -83 0 -6 23 -28 51 -48 52 -37 59 -58 21 -63 -12 -2 -28 -13
-37 -24 -13 -20 -16 -21 -33 -5 -10 9 -26 38 -35 65 -31 87 -121 170 -102 95
10 -43 67 -153 85 -166 42 -30 35 -69 -11 -60 -16 3 -35 0 -43 -6 -20 -17 -65
24 -101 91 -15 29 -48 74 -72 100 -46 51 -52 75 -27 114 23 35 13 85 -31 143
-37 52 -128 237 -139 284 -6 23 -1 34 24 57 16 15 30 32 30 38 0 11 -33 22
-66 22 -29 0 -40 31 -18 47 10 7 33 13 51 13 21 0 36 6 39 15 7 16 0 27 -76
125 -61 79 -81 133 -58 157 15 14 19 14 46 -2 30 -18 31 -18 62 8 17 15 38 27
46 27 18 0 18 14 -1 30 -20 17 -19 91 2 128 16 28 16 32 -7 92 -21 56 -24 81
-25 240 -3 199 -8 216 -75 250 -39 20 -85 72 -113 126 -44 86 -77 62 -77 -56
0 -72 -2 -77 -31 -102 -25 -23 -28 -30 -20 -47 6 -11 23 -21 38 -23 39 -4 40
-33 8 -225 -15 -87 -25 -174 -22 -195 3 -20 19 -54 37 -76 39 -49 66 -130 45
-138 -24 -10 -54 15 -61 51 -9 50 -23 53 -58 12 l-31 -36 -143 24 c-136 23
-192 42 -192 66 0 6 12 26 27 46 15 20 32 60 38 92 10 50 17 60 66 100 62 50
71 63 79 111 4 29 10 35 30 35 21 0 26 -5 28 -32 2 -18 7 -33 11 -33 21 0 33
36 42 127 6 54 17 122 25 151 12 41 14 79 9 160 -7 112 3 187 31 230 22 34 41
13 50 -55 6 -48 11 -58 37 -72 55 -30 83 -60 96 -101 11 -37 34 -60 47 -48 2
3 -3 24 -11 48 -20 56 -20 129 0 136 9 4 31 -9 56 -31 62 -56 70 -36 31 77
-41 124 -49 186 -28 226 17 33 36 42 36 18 0 -32 100 -119 117 -102 11 11 -11
68 -52 137 -25 41 -54 102 -66 136 -20 61 -20 65 -4 190 24 187 24 187 68 194
20 3 40 9 43 12 9 9 -6 27 -22 27 -9 0 -14 7 -12 18 6 27 46 17 89 -23 22 -19
45 -35 53 -35 8 0 53 34 102 75 48 42 99 78 113 81 14 3 31 7 36 9 38 13 65 3
100 -37z m-2625 24 c0 -43 -76 -246 -100 -267 -19 -18 -20 -17 -20 12 0 50 58
207 92 251 12 14 28 16 28 4z m1160 -18 c0 -15 -57 -74 -72 -74 -11 0 -28 36
-28 59 0 23 12 29 63 30 27 1 37 -3 37 -15z m2238 -16 c16 -16 -3 -38 -33 -38
-23 0 -60 32 -48 43 11 11 68 8 81 -5z m-370 -41 c3 -27 -4 -32 -32 -21 -16 6
-22 35 -9 48 15 14 38 0 41 -27z m-2012 -28 c31 -61 24 -74 -130 -226 -88 -87
-155 -145 -172 -149 -41 -10 -79 14 -79 51 0 28 8 34 90 77 134 71 213 164
173 205 -14 13 -18 12 -36 -11 -22 -29 -42 -34 -42 -11 0 22 27 85 37 85 4 0
26 -11 48 -25 56 -34 69 -33 61 8 -11 58 19 55 50 -4z m1779 -20 c30 -37 29
-63 -2 -67 -16 -2 -28 6 -43 30 -11 18 -20 41 -20 51 0 28 36 20 65 -14z
m-3075 -24 c0 -17 -39 -65 -52 -65 -13 0 -4 66 13 86 13 16 39 2 39 -21z
m1635 -67 c-46 -160 -87 -281 -119 -348 -31 -65 -87 -227 -107 -307 -11 -47
-29 -55 -61 -27 -24 22 -44 6 -60 -50 l-11 -41 -9 35 c-10 40 -1 217 13 272 6
24 23 47 49 68 22 17 40 37 40 43 0 21 49 118 74 148 13 15 53 79 87 140 62
109 114 178 125 166 3 -3 -6 -48 -21 -99z m-1836 9 c-9 -34 -33 -57 -58 -57
-21 0 -11 36 20 73 37 44 53 37 38 -16z m3401 23 c0 -16 -17 -19 -35 -6 -24
18 -11 40 16 26 10 -6 19 -15 19 -20z m-310 -39 c13 -25 13 -98 0 -106 -11 -7
-56 61 -66 99 -6 24 -3 26 25 26 20 0 34 -7 41 -19z m1330 -22 c0 -18 -2 -19
-15 -9 -8 7 -15 16 -15 21 0 5 7 9 15 9 9 0 15 -9 15 -21z m-5348 -39 c11 -19
44 -59 74 -87 29 -29 54 -58 54 -64 0 -6 19 -42 41 -80 41 -68 42 -72 46 -182
3 -62 0 -176 -5 -255 -10 -140 -10 -145 14 -215 43 -123 65 -253 71 -402 5
-126 7 -143 29 -176 31 -45 30 -51 -7 -105 -16 -24 -35 -58 -41 -75 -6 -16
-15 -28 -21 -26 -20 6 -48 119 -63 257 -21 201 -48 328 -103 500 -76 236 -77
240 -52 288 26 51 26 78 2 136 -11 25 -34 112 -51 193 -18 81 -39 163 -47 181
-16 34 -22 120 -9 140 14 23 49 8 68 -28z m4176 10 c7 -68 15 -92 39 -120 19
-23 23 -34 15 -42 -17 -17 -60 6 -72 39 -18 48 -44 93 -67 115 -34 32 -28 39
30 36 47 -3 52 -5 55 -28z m-833 4 c8 -4 22 -19 30 -35 13 -25 13 -30 -1 -44
-23 -22 -37 -14 -52 29 -16 48 -9 62 23 50z m1035 -23 c0 -24 -18 -37 -31 -24
-13 13 -1 43 17 43 8 0 14 -9 14 -19z m904 -118 c-11 -33 -50 -44 -61 -17 -8
22 44 71 60 55 7 -7 8 -20 1 -38z m-4000 12 c7 -20 -3 -45 -19 -45 -18 0 -24
21 -13 43 11 21 24 22 32 2z m656 -26 c16 -29 3 -79 -20 -79 -32 0 -36 52 -8
88 14 16 15 16 28 -9z m1406 -7 c37 -24 43 -94 18 -203 -17 -75 -29 -83 -53
-33 -16 31 -22 195 -9 227 8 18 25 22 44 9z m1855 -22 c25 -14 25 -54 -1 -94
-18 -30 -50 -134 -50 -163 0 -6 12 -18 28 -25 21 -11 27 -20 25 -42 -2 -34
-19 -56 -43 -56 -14 0 -23 20 -41 97 -13 53 -30 98 -36 101 -7 2 -18 -8 -25
-23 -13 -28 -35 -30 -51 -4 -15 24 7 70 56 119 23 23 55 54 71 71 32 32 38 34
67 19z m-4891 -18 c0 -16 -24 -32 -47 -32 -21 0 -22 3 -13 20 10 19 60 29 60
12z m3809 -1 c13 -8 19 -56 8 -67 -8 -9 -44 14 -51 32 -3 9 -1 23 5 30 13 16
19 17 38 5z m160 -55 c16 -20 10 -66 -10 -79 -26 -17 -69 16 -69 53 0 56 42
71 79 26z m-3437 -37 c-33 -30 -56 -30 -50 -2 3 15 67 44 78 35 3 -2 -10 -17
-28 -33z m1265 7 c-4 -9 -11 -16 -17 -16 -17 0 -24 31 -9 41 18 11 34 -5 26
-25z m2315 -23 c26 -23 22 -40 -13 -58 -24 -13 -34 -14 -45 -4 -19 15 -18 38
3 61 20 22 31 23 55 1z m-3035 -55 c-10 -111 -36 -169 -83 -182 -11 -3 -29 0
-39 8 -58 42 31 236 107 236 19 0 20 -4 15 -62z m-1607 -23 c0 -8 -4 -17 -10
-20 -6 -4 -10 5 -10 20 0 15 4 24 10 20 6 -3 10 -12 10 -20z m560 10 c0 -20
-35 -85 -46 -85 -20 0 -18 49 3 72 15 16 43 25 43 13z m4604 -56 c33 -39 33
-49 -3 -49 -46 0 -61 10 -61 39 0 51 26 55 64 10z m-502 4 c22 -26 28 -50 19
-75 -7 -20 -10 -18 -39 25 -18 25 -32 50 -32 56 0 17 35 13 52 -6z m-4041
-155 c-21 -184 -37 -245 -59 -224 -11 12 -2 179 14 239 20 79 35 110 47 98 7
-7 6 -45 -2 -113z m1623 57 c11 -68 -6 -127 -53 -178 -67 -75 -88 -111 -120
-206 -18 -52 -42 -113 -54 -135 l-21 -41 -7 45 c-8 54 0 128 17 155 7 11 19
54 27 95 9 41 29 109 46 150 16 41 32 87 36 102 11 43 50 68 100 65 16 -2 22
-12 29 -52z m-2220 20 c40 -61 25 -122 -22 -89 -22 15 -30 62 -16 98 9 22 19
20 38 -9z m3530 -1 c17 -45 -2 -147 -30 -158 -31 -12 -44 63 -23 137 11 39 41
52 53 21z m1464 4 c31 -31 5 -70 -40 -60 -34 7 -14 70 23 72 3 0 10 -5 17 -12z
m-3604 -64 c1 -44 -15 -53 -43 -25 -26 26 -26 36 0 62 27 27 41 14 43 -37z
m1854 -27 c2 -12 -1 -15 -12 -11 -19 7 -22 38 -3 32 6 -3 13 -12 15 -21z
m2044 -12 c13 -20 33 -38 46 -41 22 -6 31 -24 12 -24 -15 0 -40 -56 -40 -89 0
-16 11 -53 25 -82 21 -47 23 -56 11 -74 -26 -38 -40 -23 -59 60 -29 125 -49
186 -63 192 -7 2 -24 -3 -38 -12 -43 -28 -64 8 -28 50 53 64 102 71 134 20z
m-397 -6 c9 -26 -1 -35 -47 -43 -44 -8 -56 6 -34 39 21 33 72 35 81 4z m-178
-43 c23 -20 26 -28 17 -43 -15 -25 -61 -40 -82 -27 -21 13 -28 60 -11 80 17
21 44 17 76 -10z m-1621 -45 c-8 -13 -36 -15 -36 -3 0 4 5 13 12 20 14 14 34
0 24 -17z m-2933 -110 c44 -126 42 -147 -15 -114 -41 23 -68 75 -68 129 0 49
18 106 32 102 6 -2 29 -55 51 -117z m4412 102 c12 -12 15 -25 10 -52 -8 -45
-21 -59 -37 -43 -17 17 -44 15 -74 -4 -13 -9 -28 -14 -32 -10 -11 12 40 96 67
111 34 19 46 18 66 -2z m-2721 -39 c3 -9 2 -22 -2 -30 -7 -13 -10 -13 -21 0
-14 16 -9 46 8 46 5 0 12 -7 15 -16z m3190 0 c7 -18 0 -34 -15 -34 -5 0 -9 11
-9 25 0 28 15 34 24 9z m-1832 -13 c4 -3 -6 -32 -22 -63 -17 -32 -36 -81 -44
-110 -18 -70 -37 -69 -54 3 -24 99 24 200 86 184 15 -3 30 -10 34 -14z m1986
-35 c3 -12 -1 -17 -10 -14 -7 3 -15 13 -16 22 -3 12 1 17 10 14 7 -3 15 -13
16 -22z m-3435 -2 c3 -4 -4 -21 -17 -38 -37 -49 -54 -128 -76 -353 -18 -189
-53 -419 -64 -431 -12 -11 -57 11 -73 35 -15 22 -18 48 -17 138 0 92 5 122 27
187 15 42 27 95 27 118 0 23 12 75 26 117 25 73 25 76 10 118 -19 47 -15 64
16 84 42 26 125 41 141 25z m1226 -33 c23 -15 5 -41 -29 -41 -31 0 -39 17 -18
38 14 14 28 15 47 3z m1935 -241 c7 0 19 7 26 15 38 45 82 -20 64 -92 -12 -47
-31 -53 -45 -14 -6 17 -14 31 -17 31 -3 0 -19 -12 -34 -27 -36 -35 -45 -24
-53 67 -3 36 -8 81 -10 100 -5 32 -3 31 25 -22 17 -32 36 -58 44 -58z m-2844
33 c-1 -26 -37 -103 -49 -103 -13 0 -4 54 16 93 15 31 33 36 33 10z m3412 -32
c26 -23 32 -36 32 -72 1 -24 -3 -46 -8 -49 -5 -3 -24 22 -42 55 -52 92 -44
121 18 66z m-1962 9 c22 -12 40 -71 75 -243 29 -149 30 -167 10 -167 -14 0
-25 29 -42 113 -15 74 -28 38 -33 -97 -5 -103 -10 -139 -23 -160 -20 -31 -21
-31 -41 -10 -24 24 -22 124 4 157 18 23 19 27 5 53 -8 16 -15 53 -15 82 0 47
4 57 29 79 27 24 28 27 16 67 -7 22 -15 62 -19 89 -8 50 -2 56 34 37z m-3269
-31 c7 -14 8 -24 1 -31 -15 -15 -32 0 -32 28 0 30 15 31 31 3z m4536 -41 c33
-16 46 -68 17 -68 -10 0 -25 7 -35 16 -26 23 -39 9 -39 -42 0 -31 -5 -46 -15
-51 -9 -3 -18 -3 -22 0 -8 9 -16 134 -9 153 7 19 54 15 103 -8z m-428 -106
c12 -38 12 -46 -2 -59 -29 -29 -47 -9 -47 52 0 48 3 56 18 53 10 -2 22 -20 31
-46z m1369 -4 c19 -19 14 -36 -10 -44 -13 -3 -72 -36 -131 -71 -59 -36 -124
-69 -144 -75 -19 -5 -69 -25 -110 -44 -41 -18 -148 -55 -236 -80 -89 -25 -191
-57 -227 -69 -76 -27 -133 -39 -290 -60 -282 -37 -372 -38 -408 -2 -14 14 -12
19 20 51 39 39 59 44 78 21 9 -11 33 -15 89 -15 100 0 180 20 238 59 l48 32
-71 -6 c-82 -8 -106 1 -130 46 -21 42 -11 47 27 15 22 -19 41 -26 63 -24 34 3
43 23 45 100 1 53 16 70 36 41 10 -14 22 -18 42 -16 38 6 53 -26 53 -112 0
-55 3 -65 20 -70 13 -4 33 1 53 14 96 62 154 82 259 90 74 6 115 14 144 29 23
12 77 31 120 42 104 28 152 50 194 89 62 56 196 91 228 59z m-933 -138 c0 -27
-22 -39 -31 -16 -8 22 3 49 19 43 6 -2 12 -14 12 -27z m-452 -52 c20 -27 20
-28 2 -41 -14 -11 -17 -22 -12 -54 8 -46 -1 -54 -46 -46 -52 10 -59 67 -10 79
23 6 24 10 18 51 -6 39 -4 44 11 41 9 -1 26 -15 37 -30z m1081 -125 c2 -10 7
-66 11 -124 7 -108 -2 -142 -25 -98 -15 26 -35 200 -27 222 8 22 34 22 41 0z
m-93 -33 c9 -33 11 -129 3 -169 -5 -25 -12 -31 -31 -31 -23 0 -24 -3 -17 -27
5 -16 8 -53 9 -83 0 -47 -3 -55 -20 -58 -11 -2 -28 -11 -37 -20 -17 -14 -19
-12 -37 29 -11 24 -21 60 -23 79 -3 31 -1 35 19 32 26 -4 31 15 21 83 -13 99
-10 122 23 160 38 43 79 46 90 5z m-1731 -40 c0 -12 -28 -25 -36 -17 -9 9 6
27 22 27 8 0 14 -5 14 -10z m-605 -116 c64 -16 105 -43 105 -68 0 -55 -248
-14 -292 48 -25 37 77 47 187 20z m-381 -28 c8 -19 28 -44 45 -57 35 -26 37
-43 16 -113 -19 -62 -19 -131 0 -221 22 -106 32 -123 68 -127 27 -3 32 -8 38
-36 4 -19 12 -39 18 -45 6 -6 11 -25 11 -42 0 -20 8 -39 21 -51 11 -10 27 -33
34 -50 7 -18 37 -50 67 -73 81 -62 133 -153 121 -213 -5 -23 1 -30 41 -56 85
-52 95 -75 142 -333 29 -158 29 -157 -24 -226 -30 -40 -55 -42 -105 -8 -40 28
-73 80 -57 90 14 9 30 -3 40 -31 12 -31 44 -31 75 1 31 30 31 41 1 49 -17 4
-30 22 -49 66 -15 33 -31 60 -37 60 -6 0 -10 -24 -10 -55 0 -30 -4 -55 -10
-55 -21 0 -32 48 -36 158 -3 65 -8 128 -10 142 l-6 25 -19 -24 c-10 -13 -19
-37 -19 -55 0 -17 -5 -38 -10 -46 -6 -10 -10 37 -10 143 0 144 -6 178 -25 146
-4 -6 -11 -63 -16 -127 -6 -64 -12 -124 -15 -132 -12 -34 -26 25 -34 142 -8
116 -13 138 -26 125 -13 -12 -24 -112 -18 -154 4 -27 2 -43 -4 -43 -13 0 -39
120 -53 245 -12 112 -22 145 -51 172 -19 17 -21 17 -42 -10 -12 -15 -25 -27
-28 -27 -9 0 -28 59 -28 85 0 12 -9 33 -19 47 -35 44 -46 145 -46 430 l0 266
24 26 c14 14 26 26 28 26 1 0 9 -15 17 -34z m-999 -87 c19 -56 15 -69 -24 -69
-41 0 -55 22 -47 72 14 84 43 83 71 -3z m2302 14 c4 -28 1 -42 -11 -52 -38
-32 -63 41 -30 88 20 29 34 17 41 -36z m-640 -38 c16 -79 16 -127 -1 -150 -17
-24 -46 -13 -46 18 0 38 -23 61 -53 53 -15 -3 -39 -9 -53 -12 -14 -4 -36 -1
-49 6 -13 7 -31 10 -39 7 -25 -10 -18 6 15 32 49 38 183 112 199 109 9 -2 19
-26 27 -63z m273 -74 c30 -25 33 -31 21 -45 -7 -9 -17 -16 -22 -16 -9 0 -59
70 -59 82 0 16 27 7 60 -21z m2164 -10 c19 -21 14 -41 -9 -41 -17 0 -38 36
-30 50 9 15 20 12 39 -9z m-2344 -70 c25 -48 3 -96 -42 -89 -50 7 -45 108 6
108 15 0 30 -8 36 -19z m-244 -45 c-5 -22 -12 -26 -42 -26 -28 0 -35 3 -32 18
2 9 14 18 26 20 13 2 26 10 29 18 9 25 26 -2 19 -30z m-1449 -53 c22 -70 11
-108 -32 -108 -21 0 -33 7 -43 25 -17 33 -10 111 13 146 17 26 18 27 32 9 7
-11 21 -43 30 -72z m1313 -93 c0 -15 -31 -60 -41 -60 -14 0 -11 23 7 48 16 23
34 29 34 12z m528 -44 c28 -58 47 -146 38 -180 -9 -36 -44 -35 -51 2 -3 15
-15 50 -27 77 -27 64 -34 121 -18 141 19 22 33 13 58 -40z m-653 -66 l6 -45
-25 28 c-25 27 -34 66 -19 81 13 13 32 -19 38 -64z m498 10 c11 -42 3 -193
-12 -233 -6 -16 -17 -27 -24 -24 -8 2 -13 42 -15 137 -1 74 0 140 3 148 9 25
38 8 48 -28z m1980 -122 c8 -12 7 -21 -2 -32 -23 -28 -41 -19 -41 20 0 28 4
35 16 32 9 -2 22 -10 27 -20z m-2107 -22 c7 -28 -2 -49 -17 -41 -12 8 -12 65
1 65 5 0 12 -11 16 -24z m1541 13 c96 -14 123 -29 123 -70 0 -29 -2 -30 -37
-27 l-38 3 2 -90 c4 -113 18 -184 49 -238 27 -48 30 -79 9 -97 -21 -18 -59 9
-86 61 l-21 41 -26 -25 c-42 -40 -73 -43 -138 -13 -40 18 -73 26 -114 26 -87
0 -121 43 -60 75 16 8 37 28 47 43 9 15 26 43 38 62 15 23 25 58 28 103 4 37
15 88 26 112 20 45 20 45 70 45 28 0 85 -5 128 -11z m-3037 -23 c0 -18 -17
-29 -30 -21 -8 5 -7 11 1 21 15 18 29 18 29 0z m3256 -120 c8 -33 1 -91 -11
-89 -14 4 -19 113 -6 113 6 0 13 -11 17 -24z m-53 -203 c8 -10 19 -31 23 -48
4 -16 21 -56 38 -87 24 -45 28 -60 19 -69 -10 -10 -17 -9 -32 5 -25 22 -77
122 -86 163 -10 51 8 68 38 36z m-1222 -94 c25 -47 -16 -161 -51 -139 -11 7
-14 26 -13 75 1 36 5 70 8 75 11 17 44 11 56 -11z m626 -19 c14 -11 36 -20 49
-20 29 0 54 -25 54 -54 0 -13 -9 -48 -19 -79 -18 -53 -109 -268 -117 -276 -5
-6 -38 35 -92 114 -58 86 -82 167 -62 215 23 56 101 118 148 120 8 0 25 -9 39
-20z m-1613 -6 c3 -9 6 -45 6 -80 0 -77 -17 -92 -58 -51 -24 24 -25 28 -10 39
9 7 19 31 23 53 4 22 9 43 11 47 8 13 21 9 28 -8z m-136 -58 c3 -12 -1 -17
-10 -14 -7 3 -15 13 -16 22 -3 12 1 17 10 14 7 -3 15 -13 16 -22z m207 -69 c0
-26 -20 -25 -23 2 -3 16 1 22 10 19 7 -3 13 -12 13 -21z m1082 -3 c44 -33 65
-67 57 -89 -6 -15 -16 -17 -72 -11 -82 9 -102 19 -102 54 0 69 57 92 117 46z
m778 -44 c-10 -16 -35 7 -28 27 5 13 7 13 21 0 8 -8 11 -20 7 -27z m-1681
-151 c3 -39 13 -81 21 -92 17 -24 20 -93 5 -102 -25 -15 -60 128 -60 241 1 51
2 57 14 42 7 -10 16 -50 20 -89z m-153 37 c9 -31 1 -86 -11 -86 -13 0 -20 29
-20 77 0 50 19 56 31 9z m1734 2 c-8 -23 -9 -58 -4 -173 4 -89 -9 -144 -35
-150 -84 -17 -92 -16 -120 12 -20 19 -25 33 -21 48 4 11 13 46 20 77 18 79 50
141 91 178 43 37 80 41 69 8z m177 -63 c8 -19 8 -28 -2 -40 -16 -20 -40 -2
-40 30 0 41 25 48 42 10z m-1866 -137 c-7 -36 -23 -58 -42 -58 -20 0 -17 15 9
55 28 43 41 45 33 3z m1824 -38 c0 -32 -19 -80 -32 -80 -12 0 -10 55 4 85 15
34 28 32 28 -5z"/>
<path d="M6913 10980 c-33 -20 -43 -40 -20 -40 30 0 86 22 102 40 18 20 17 20
-16 20 -19 0 -49 -9 -66 -20z"/>
<path d="M7394 10339 c-10 -17 16 -29 69 -29 56 0 98 17 76 31 -20 13 -137 11
-145 -2z"/>
<path d="M7107 9733 c-26 -7 -17 -35 15 -44 20 -5 42 0 85 21 l58 28 -70 0
c-38 0 -78 -2 -88 -5z"/>
<path d="M6963 9709 c-66 -19 -24 -55 44 -37 37 10 51 27 32 39 -17 11 -34 10
-76 -2z"/>
<path d="M7015 9570 c-4 -6 7 -10 25 -10 18 0 29 4 25 10 -3 6 -15 10 -25 10
-10 0 -22 -4 -25 -10z"/>
<path d="M6785 9556 c-57 -14 -95 -32 -95 -46 0 -16 65 -9 210 21 50 10 53 12
35 25 -23 17 -82 17 -150 0z"/>
<path d="M5990 9320 l-55 -29 50 -1 c53 0 95 20 95 46 0 21 -29 16 -90 -16z"/>
<path d="M6953 9223 c-20 -8 -15 -33 7 -33 24 0 70 21 70 32 0 9 -57 10 -77 1z"/>
<path d="M6773 9070 c-77 -11 -103 -19 -103 -31 0 -20 43 -25 103 -11 121 28
138 33 132 42 -7 11 -56 11 -132 0z"/>
<path d="M6219 8559 c-10 -6 -7 -9 14 -9 29 0 35 5 14 13 -8 3 -20 1 -28 -4z"/>
<path d="M5940 9685 c-15 -18 -6 -45 14 -45 18 0 35 29 29 48 -6 16 -28 15
-43 -3z"/>
<path d="M8658 8686 c-71 -30 -148 -82 -148 -101 0 -8 5 -15 10 -15 37 0 250
111 250 131 0 16 -53 9 -112 -15z"/>
<path d="M5764 8929 c-33 -9 -51 -34 -33 -44 15 -10 86 5 99 20 25 31 -6 42
-66 24z"/>
<path d="M7545 8930 c-4 -6 6 -10 22 -10 22 0 25 2 13 10 -19 12 -27 12 -35 0z"/>
<path d="M7108 8278 c-35 -12 -36 -24 -3 -31 40 -7 89 7 93 26 3 13 -4 17 -30
16 -18 0 -45 -5 -60 -11z"/>
<path d="M9025 8231 c-9 -15 8 -35 24 -30 8 3 7 10 -2 23 -10 14 -16 16 -22 7z"/>
<path d="M7844 8291 c-40 -25 -50 -40 -29 -47 21 -8 68 12 96 42 l22 24 -29 0
c-16 0 -43 -9 -60 -19z"/>
<path d="M7734 8235 c-18 -15 -18 -15 5 -13 14 2 26 9 29 16 5 17 -10 15 -34
-3z"/>
<path d="M7616 8194 c-9 -8 -16 -20 -16 -25 0 -18 32 -5 48 19 13 20 13 22 -1
22 -9 0 -23 -7 -31 -16z"/>
<path d="M7187 6696 c-3 -8 -3 -17 0 -20 7 -7 33 13 33 25 0 15 -27 10 -33 -5z"/>
<path d="M7040 6657 c-33 -16 -39 -47 -10 -47 25 0 93 44 83 53 -10 11 -46 8
-73 -6z"/>
<path d="M8177 5004 c-9 -10 21 -115 38 -134 24 -26 33 -25 41 5 10 42 -56
151 -79 129z"/>
<path d="M7992 4878 c2 -12 10 -23 18 -23 22 0 19 39 -3 43 -15 3 -18 -1 -15
-20z"/>
<path d="M8030 4801 c0 -41 161 -391 219 -476 35 -51 25 -4 -22 102 -24 54
-61 139 -82 188 -36 84 -98 195 -110 195 -3 0 -5 -4 -5 -9z"/>
<path d="M7950 4693 c0 -22 2 -25 10 -13 13 20 13 40 0 40 -5 0 -10 -12 -10
-27z"/>
<path d="M8038 4474 c16 -33 40 -70 51 -84 l22 -25 -6 25 c-9 33 -70 133 -85
138 -6 2 2 -22 18 -54z"/>
<path d="M8321 4340 c-24 -113 -6 -167 65 -190 52 -17 62 -3 39 57 -20 54 -83
183 -89 183 -3 0 -9 -23 -15 -50z"/>
<path d="M7972 4333 c2 -10 10 -18 18 -18 8 0 16 8 18 18 2 12 -3 17 -18 17
-15 0 -20 -5 -18 -17z"/>
<path d="M8022 4185 c-21 -45 8 -75 72 -75 47 0 48 24 3 68 -40 38 -60 40 -75
7z"/>
<path d="M8160 4191 c-14 -27 3 -67 32 -74 35 -10 76 -8 83 3 10 15 -14 49
-48 70 -40 25 -54 25 -67 1z"/>
<path d="M8037 3843 c-12 -11 -8 -58 6 -77 18 -24 61 -18 65 10 5 37 -50 89
-71 67z"/>
<path d="M7985 3641 c-8 -14 28 -95 61 -138 24 -31 64 -45 64 -22 0 6 -12 31
-26 56 -15 24 -30 59 -33 76 -5 25 -13 33 -33 35 -14 2 -29 -2 -33 -7z"/>
<path d="M7950 3455 c0 -3 11 -27 24 -53 29 -58 81 -115 98 -110 30 10 17 41
-43 103 -56 58 -79 76 -79 60z"/>
<path d="M8205 3020 c12 -56 24 -71 25 -29 0 22 -7 42 -16 50 -15 12 -16 10
-9 -21z"/>
<path d="M7920 2509 c0 -18 54 -93 58 -81 4 14 -22 65 -42 81 -13 11 -16 11
-16 0z"/>
<path d="M8206 2281 c-3 -5 1 -14 8 -20 16 -13 32 2 21 19 -8 12 -22 13 -29 1z"/>
<path d="M8117 2034 c-8 -9 11 -44 23 -44 6 0 10 6 10 14 0 16 -24 38 -33 30z"/>
<path d="M6815 4417 c-4 -10 -5 -21 -1 -24 10 -10 18 4 13 24 -4 17 -4 17 -12
0z"/>
<path d="M9456 3285 c-7 -20 3 -45 19 -45 7 0 15 7 19 15 7 20 -3 45 -19 45
-7 0 -15 -7 -19 -15z"/>
<path d="M6860 2575 c-19 -50 -7 -116 19 -101 14 9 15 113 1 121 -6 3 -15 -6
-20 -20z"/>
<path d="M6856 2421 c-3 -5 0 -14 8 -20 10 -8 16 -8 25 2 6 8 8 17 4 20 -9 10
-31 9 -37 -2z"/>
<path d="M8862 2284 c-17 -14 -32 -32 -32 -40 0 -7 15 -34 34 -58 19 -25 36
-50 38 -57 2 -7 10 -9 16 -5 21 13 9 153 -15 177 -4 4 -23 -3 -41 -17z"/>
<path d="M7622 11954 c-29 -20 -28 -34 3 -34 33 0 95 26 95 39 0 17 -73 13
-98 -5z"/>
<path d="M7782 11378 c-18 -18 -14 -28 11 -28 23 0 47 17 47 32 0 12 -45 9
-58 -4z"/>
<path d="M7520 11138 c-73 -21 -80 -48 -12 -47 84 1 154 38 100 53 -29 7 -45
6 -88 -6z"/>
<path d="M9107 3103 c-4 -7 -10 -40 -14 -75 -5 -54 -2 -67 15 -88 11 -14 24
-22 28 -17 4 4 1 49 -7 100 -8 52 -18 87 -22 80z"/>
<path d="M8814 3075 c-16 -36 -10 -244 10 -302 20 -59 30 -70 51 -53 21 18 18
84 -6 131 -12 24 -25 82 -33 142 -10 77 -15 97 -22 82z"/>
<path d="M8932 2878 c11 -129 16 -153 37 -172 17 -15 19 -16 25 -1 10 26 7 48
-10 80 -12 23 -44 154 -44 181 0 2 -4 4 -8 4 -4 0 -4 -42 0 -92z"/>
<path d="M9024 2918 c3 -13 6 -26 6 -30 0 -15 30 -8 30 6 0 26 -12 46 -27 46
-11 0 -14 -6 -9 -22z"/>
<path d="M8654 2835 c-9 -24 3 -44 37 -63 18 -9 45 -29 61 -44 31 -31 48 -35
48 -15 0 13 -122 137 -134 137 -4 0 -9 -7 -12 -15z"/>
<path d="M9070 2763 c0 -11 6 -27 13 -37 12 -17 14 -17 27 -1 10 12 11 21 3
33 -15 25 -43 27 -43 5z"/>
</g>
</svg>
